<svg width="37" height="37" viewBox="0 0 37 37" fill="none" xmlns="http://www.w3.org/2000/svg">
<mask id="mask0_1198_91" style="mask-type:alpha" maskUnits="userSpaceOnUse" x="0" y="0" width="37" height="37">
<rect width="36.5217" height="36.5217" fill="#D9D9D9"/>
</mask>
<g mask="url(#mask0_1198_91)">
<path d="M8.0771 31.1956C7.31826 31.1956 6.66999 30.9269 6.13231 30.3895C5.59489 29.8518 5.32617 29.2036 5.32617 28.4447V8.07699C5.32617 7.31815 5.59489 6.66989 6.13231 6.13221C6.66999 5.59478 7.31826 5.32607 8.0771 5.32607H14.8488C14.9445 4.48125 15.3132 3.76286 15.9551 3.17091C16.5968 2.5787 17.3654 2.28259 18.261 2.28259C19.1661 2.28259 19.9397 2.5787 20.5816 3.17091C21.2235 3.76286 21.5873 4.48125 21.6731 5.32607H28.4448C29.2037 5.32607 29.8519 5.59478 30.3896 6.13221C30.927 6.66989 31.1957 7.31815 31.1957 8.07699V28.4447C31.1957 29.2036 30.927 29.8518 30.3896 30.3895C29.8519 30.9269 29.2037 31.1956 28.4448 31.1956H8.0771ZM8.0771 28.913H28.4448C28.562 28.913 28.6693 28.8642 28.7667 28.7666C28.8643 28.6692 28.9131 28.5619 28.9131 28.4447V8.07699C28.9131 7.95982 28.8643 7.85254 28.7667 7.75515C28.6693 7.6575 28.562 7.60868 28.4448 7.60868H8.0771C7.95992 7.60868 7.85264 7.6575 7.75525 7.75515C7.6576 7.85254 7.60878 7.95982 7.60878 8.07699V28.4447C7.60878 28.5619 7.6576 28.6692 7.75525 28.7666C7.85264 28.8642 7.95992 28.913 8.0771 28.913ZM11.0327 25.3134H20.924V23.0311H11.0327V25.3134ZM11.0327 19.4022H25.4892V17.1195H11.0327V19.4022ZM11.0327 13.4906H25.4892V11.2084H11.0327V13.4906ZM19.0789 6.29047C19.2945 6.07489 19.4023 5.80225 19.4023 5.47254C19.4023 5.14283 19.2945 4.87018 19.0789 4.6546C18.8633 4.43902 18.5907 4.33123 18.261 4.33123C17.9312 4.33123 17.6586 4.43902 17.443 4.6546C17.2274 4.87018 17.1196 5.14283 17.1196 5.47254C17.1196 5.80225 17.2274 6.07489 17.443 6.29047C17.6586 6.50605 17.9312 6.61384 18.261 6.61384C18.5907 6.61384 18.8633 6.50605 19.0789 6.29047Z" fill="#007BE2"/>
</g>
</svg>
