<svg width="44" height="44" viewBox="0 0 44 44" fill="none" xmlns="http://www.w3.org/2000/svg">
<circle cx="22" cy="22" r="22" fill="#DEF4E5"/>
<mask id="mask0_1653_246" style="mask-type:alpha" maskUnits="userSpaceOnUse" x="10" y="10" width="24" height="24">
<rect x="10" y="10" width="24" height="24" fill="#D9D9D9"/>
</mask>
<g mask="url(#mask0_1653_246)">
<path d="M21.0755 31.5C20.8495 31.5 20.623 31.4548 20.396 31.3645C20.1688 31.274 19.9644 31.1384 19.7828 30.9578L13.027 24.202C12.8437 24.0193 12.71 23.8176 12.626 23.5968C12.542 23.3761 12.5 23.1516 12.5 22.9233C12.5 22.6949 12.542 22.4672 12.626 22.24C12.71 22.013 12.8437 21.8087 13.027 21.627L21.5963 13.0423C21.7623 12.8766 21.9584 12.7448 22.1848 12.647C22.4111 12.549 22.645 12.5 22.8865 12.5H29.6672C30.1724 12.5 30.6016 12.6779 30.9548 13.0337C31.3079 13.3897 31.4845 13.8176 31.4845 14.3173V21.098C31.4845 21.342 31.4393 21.5745 31.349 21.7955C31.2587 22.0165 31.1283 22.209 30.9578 22.373L22.3635 30.9578C22.1827 31.1384 21.9792 31.274 21.7533 31.3645C21.5274 31.4548 21.3015 31.5 21.0755 31.5ZM20.852 29.9038C20.916 29.9679 20.9913 30 21.078 30C21.1645 30 21.2397 29.9679 21.3038 29.9038L29.898 21.3038C29.9302 21.2718 29.9527 21.2365 29.9655 21.198C29.9782 21.1597 29.9845 21.1213 29.9845 21.0828V14.3173C29.9845 14.2276 29.9541 14.1539 29.8932 14.0962C29.8324 14.0384 29.7571 14.0095 29.6672 14.0095H22.777L14.0963 22.6962C14.0321 22.7603 14 22.8355 14 22.922C14 23.0087 14.0321 23.084 14.0963 23.148L20.852 29.9038ZM27.4557 17.7788C27.8056 17.7788 28.103 17.6573 28.348 17.4143C28.5928 17.1713 28.7153 16.8761 28.7153 16.5288C28.7153 16.1789 28.5933 15.8816 28.3492 15.6367C28.1051 15.3917 27.8086 15.2693 27.4598 15.2693C27.1109 15.2693 26.8147 15.3913 26.5712 15.6355C26.3276 15.8797 26.2057 16.1762 26.2057 16.525C26.2057 16.8737 26.3273 17.1698 26.5703 17.4135C26.8134 17.657 27.1086 17.7788 27.4557 17.7788Z" fill="#08692A"/>
</g>
</svg>
