<svg width="50" height="50" viewBox="0 0 50 50" fill="none" xmlns="http://www.w3.org/2000/svg">
<rect x="0.5" y="0.5" width="49" height="49" rx="7.5" fill="#1D85DB" stroke="#E2E2E2"/>
<path d="M7 36V25.5455C7 24.9265 7.16593 24.2672 7.49778 23.5675C7.82963 22.8677 8.31185 22.3422 8.94444 21.9909V17.1818C8.94444 16.0025 9.31843 15.0108 10.0664 14.2065C10.8144 13.4022 11.7367 13 12.8333 13H21.5833C22.2535 13 22.8258 13.1485 23.3003 13.4454C23.7734 13.7409 24.1733 14.15 24.5 14.6727C24.8267 14.15 25.2266 13.7409 25.6997 13.4454C26.1742 13.1485 26.7465 13 27.4167 13H36.1667C37.2633 13 38.1856 13.4022 38.9336 14.2065C39.6816 15.0108 40.0556 16.0025 40.0556 17.1818V21.9909C40.6894 22.3422 41.1717 22.8677 41.5022 23.5675C41.8341 24.2672 42 24.9265 42 25.5455V36H40.0556V31.8182H8.94444V36H7ZM25.4722 21.3636H38.1111V17.1818C38.1111 16.5894 37.9244 16.0932 37.5511 15.6931C37.1778 15.293 36.7163 15.0923 36.1667 15.0909H27.4167C26.8657 15.0909 26.4043 15.2916 26.0322 15.6931C25.6602 16.0945 25.4735 16.5908 25.4722 17.1818V21.3636ZM10.8889 21.3636H23.5278V17.1818C23.5278 16.5894 23.3411 16.0932 22.9678 15.6931C22.5944 15.293 22.133 15.0923 21.5833 15.0909H12.8333C12.2824 15.0909 11.8209 15.2916 11.4489 15.6931C11.0769 16.0945 10.8902 16.5908 10.8889 17.1818V21.3636ZM8.94444 29.7273H40.0556V25.5455C40.0556 24.953 39.8689 24.4568 39.4956 24.0567C39.1222 23.6567 38.6607 23.4559 38.1111 23.4545H10.8889C10.338 23.4545 9.87648 23.6553 9.50444 24.0567C9.13241 24.4582 8.94574 24.9544 8.94444 25.5455V29.7273Z" fill="white"/>
</svg>
