<svg width="46" height="46" viewBox="0 0 46 46" fill="none" xmlns="http://www.w3.org/2000/svg">
<path d="M10.6729 40.3333C11.2479 42.4417 13.0583 43.9646 15.3323 44.1281C17.9948 44.3198 21.9323 44.5 27.3115 44.5C32.6594 44.5 36.5802 44.3219 39.2417 44.1312C41.9052 43.9417 43.9417 41.9062 44.1312 39.2417C44.3219 36.5802 44.5 32.6583 44.5 27.3125C44.5 21.9323 44.3198 17.9958 44.1281 15.3333C43.9646 13.0594 42.4406 11.2479 40.3333 10.674" stroke="white" stroke-width="1.5" stroke-linecap="round" stroke-linejoin="round"/>
<path d="M1.11875 6.00833C1.30833 3.34375 3.34375 1.30833 6.00833 1.11875C8.66979 0.927083 12.5917 0.75 17.9375 0.75C23.2844 0.75 27.2052 0.928125 29.8667 1.11875C32.5312 1.30833 34.5667 3.34375 34.7562 6.00833C34.9469 8.66979 35.125 12.5917 35.125 17.9375C35.125 23.2833 34.9469 27.2052 34.7562 29.8677C34.5667 32.5312 32.5312 34.5656 29.8667 34.7562C27.2052 34.9469 23.2833 35.125 17.9375 35.125C12.5906 35.125 8.66979 34.9469 6.00833 34.7562C3.34375 34.5667 1.30833 32.5312 1.11875 29.8667C0.927083 27.2062 0.75 23.2844 0.75 17.9375C0.75 12.5906 0.928125 8.66979 1.11875 6.00833Z" stroke="white" stroke-width="1.5" stroke-linecap="round" stroke-linejoin="round"/>
<path d="M2.83333 2.83333L33.0417 33.0417M15.3333 0.75L35.125 20.5417M20.5417 35.125L0.75 15.3333M34.9865 10.2635C35.0698 12.3938 35.125 14.9417 35.125 17.9375C35.125 23.2844 34.9469 27.2052 34.7562 29.8677C34.5667 32.5312 32.5312 34.5656 29.8667 34.7562C27.2052 34.9469 23.2833 35.125 17.9375 35.125C14.9417 35.125 12.3938 35.0687 10.2635 34.9865C10.168 32.4296 10.1218 29.8711 10.125 27.3125C10.125 21.9656 10.3031 18.0448 10.4937 15.3833C10.6833 12.7187 12.7187 10.6833 15.3833 10.4937C18.0448 10.3021 21.9667 10.125 27.3125 10.125C30.3083 10.125 32.8562 10.1813 34.9865 10.2635Z" stroke="white" stroke-width="1.5" stroke-linecap="round" stroke-linejoin="round"/>
</svg>
