<svg width="50" height="50" viewBox="0 0 50 50" fill="none" xmlns="http://www.w3.org/2000/svg">
<rect x="0.5" y="0.5" width="49" height="49" rx="7.5" fill="#1D85DB" stroke="#E2E2E2"/>
<path d="M39.4163 14.25V37.75H31.9163V35.583H37.2502V16.417H24.7502V18.043L22.5833 16.4717V14.25H39.4163ZM28.7502 24.7949V37.75H21.2502V31.083H18.0833V37.75H10.5833V24.7949L19.6663 18.3066L28.7502 24.7949ZM34.0833 30.25V32.417H31.9163V30.25H34.0833ZM34.0833 24.917V27.083H31.9163V24.917H34.0833ZM34.0833 19.583V21.75H31.9163V19.583H34.0833ZM26.5833 25.8711L26.4778 25.7959L19.8118 21.0625L19.6663 20.96L19.5217 21.0625L12.8547 25.7959L12.7502 25.8711V35.583H15.9163V28.917H23.4163V35.583H26.5833V25.8711Z" fill="white" stroke="#1D85DB" stroke-width="0.5"/>
</svg>
