<svg width="50" height="50" viewBox="0 0 50 50" fill="none" xmlns="http://www.w3.org/2000/svg">
<rect x="0.5" y="0.5" width="49" height="49" rx="7.5" fill="#1D85DB" stroke="#E2E2E2"/>
<path d="M12.4443 9.34961H36.5557C38.2619 9.34967 39.6503 10.7381 39.6504 12.4443V36.5557C39.6503 38.2619 38.2619 39.6503 36.5557 39.6504H12.4443C10.7381 39.6503 9.34967 38.2619 9.34961 36.5557V12.4443C9.34967 10.7381 10.7381 9.34967 12.4443 9.34961ZM12.0947 36.9053H36.9092V36.5557L36.9053 12.4443V12.0947H12.0947V36.9053Z" fill="white" stroke="#1D85DB" stroke-width="0.7"/>
<path d="M19.1423 24.8502V29.858H24.1501V32.4966H16.5037V24.8502H19.1423ZM32.4968 16.5035V24.15H29.8582V19.1422H24.8503V16.5035H32.4968Z" fill="white" stroke="#1D85DB" stroke-width="0.7"/>
</svg>
