<svg width="50" height="50" viewBox="0 0 50 50" fill="none" xmlns="http://www.w3.org/2000/svg">
<rect x="0.5" y="0.5" width="49" height="49" rx="7.5" fill="#1D85DB" stroke="#E2E2E2"/>
<path d="M20.75 13.5C23.0456 13.5 24.9884 14.3009 26.5938 15.9062C28.1991 17.5116 29 19.4544 29 21.75C29 22.2786 28.9544 22.7764 28.8633 23.2432C28.7719 23.7111 28.6343 24.1739 28.4512 24.6318L28.3896 24.7861L28.5068 24.9023L37.1494 33.4736C37.385 33.7098 37.5 33.9886 37.5 34.3232C37.4999 34.6582 37.3845 34.9366 37.1484 35.1729L34.1729 38.1484C33.9366 38.3845 33.6582 38.4999 33.3232 38.5C33.03 38.5 32.7797 38.4117 32.5635 38.2314L32.4727 38.1484L23.9023 29.5068L23.7861 29.3896L23.6318 29.4512C23.1739 29.6343 22.7111 29.7719 22.2432 29.8633C21.7764 29.9544 21.2786 30 20.75 30C18.4544 30 16.5116 29.1991 14.9062 27.5938C13.3009 25.9884 12.5 24.0456 12.5 21.75C12.5 20.9235 12.6144 20.1396 12.8428 19.3975C13.0416 18.7513 13.309 18.1349 13.6455 17.5488L18.7666 22.6699L21.6699 19.7666L16.5488 14.6455C17.1349 14.309 17.7513 14.0416 18.3975 13.8428C19.1396 13.6144 19.9235 13.5 20.75 13.5ZM24.1152 18.9521C24.3546 19.1916 24.4668 19.4596 24.4668 19.7666C24.4668 20.0737 24.3548 20.3424 24.1152 20.582L19.582 25.1152C19.3424 25.3548 19.0737 25.4668 18.7666 25.4668C18.4596 25.4668 18.1916 25.3546 17.9521 25.1152L14.7871 21.9502L14.9072 22.71C15.1291 24.1153 15.7914 25.2954 16.8857 26.2422C17.9828 27.1912 19.2746 27.667 20.75 27.667C21.3899 27.667 22.0285 27.5679 22.665 27.3721C23.2365 27.1962 23.7589 26.9308 24.2334 26.5791L33.1465 35.4912L33.3232 35.668L34.6328 34.3584L25.5518 25.2773C25.9227 24.8192 26.1974 24.2987 26.373 23.7168C26.5688 23.0684 26.667 22.4125 26.667 21.75C26.667 20.2746 26.1912 18.9828 25.2422 17.8857C24.2954 16.7914 23.1153 16.1291 21.71 15.9072L20.9502 15.7871L24.1152 18.9521Z" fill="white" stroke="#1D85DB" stroke-width="0.5"/>
</svg>
