<svg width="55" height="55" viewBox="0 0 55 55" fill="none" xmlns="http://www.w3.org/2000/svg">
<path d="M7.63849 17.0562H13.2859V19.6118H7.63849C7.16711 19.6119 6.71497 19.799 6.38165 20.1323C6.04833 20.4656 5.86123 20.9178 5.86115 21.3892V46.3491L6.26544 46.0308L11.4363 41.9575C11.5994 41.8397 11.7156 41.7373 11.869 41.6382C12.0131 41.545 12.1276 41.5005 12.2225 41.5005H33.6111C34.0825 41.5005 34.5346 41.3133 34.868 40.98C35.2013 40.6467 35.3884 40.1945 35.3885 39.7231V38.4448H37.9442V39.9302C37.9641 40.4749 37.8721 41.0182 37.6736 41.5259C37.4752 42.0335 37.1749 42.4956 36.7908 42.8823C36.4068 43.269 35.9474 43.5729 35.4412 43.7749C34.9982 43.9517 34.5273 44.0468 34.0516 44.0571L33.8475 44.0562H13.2244L13.159 44.105L5.29083 49.895C5.10842 50.0265 4.89451 50.108 4.67072 50.1304C4.44792 50.1526 4.22347 50.1148 4.01935 50.0229C3.80724 49.9186 3.62774 49.7582 3.50177 49.5581C3.40696 49.4074 3.34498 49.2388 3.31915 49.064L3.30548 48.8872V21.3892C3.30557 20.24 3.76243 19.1383 4.57501 18.3257C5.38759 17.5131 6.48933 17.0562 7.63849 17.0562Z" fill="#001A2D" stroke="#CCDEEB" stroke-width="0.5"/>
<path d="M21.3885 6.36096H34.4793C34.2692 7.19744 34.1525 8.05428 34.1307 8.91663H21.3885C20.9171 8.91671 20.465 9.10381 20.1317 9.43713C19.7983 9.77045 19.6112 10.2226 19.6111 10.694V29.028C19.6112 29.4993 19.7983 29.9515 20.1317 30.2848C20.465 30.6181 20.9171 30.8052 21.3885 30.8053H42.6092C42.8561 30.8061 43.0969 30.8783 43.3026 31.0123L43.3885 31.0739L48.7352 35.2438L49.1385 35.5592V20.3815C49.9764 20.1245 50.7825 19.7751 51.5418 19.3385V38.0719C51.541 38.3126 51.4723 38.5483 51.3436 38.7516C51.2154 38.9539 51.0321 39.1147 50.8162 39.2184C50.6106 39.309 50.3853 39.3454 50.1619 39.3209C49.9936 39.3024 49.8307 39.2509 49.6834 39.1696L49.5418 39.0778L42.244 33.4137L42.1756 33.361H21.3885C20.2393 33.3609 19.1376 32.904 18.325 32.0914C17.5124 31.2789 17.0556 30.1771 17.0555 29.028V10.694C17.0556 9.54482 17.5124 8.44307 18.325 7.63049C19.1376 6.81791 20.2393 6.36105 21.3885 6.36096Z" fill="#001A2D" stroke="#CCDEEB" stroke-width="0.5"/>
<path d="M45.8332 2.42847C49.5549 2.42847 52.5723 5.44506 52.5724 9.16675C52.5724 12.8885 49.555 15.906 45.8332 15.906C42.1115 15.9059 39.0949 12.8885 39.0949 9.16675C39.095 5.44513 42.1116 2.42858 45.8332 2.42847Z" stroke="#001A2D" stroke-width="1.8"/>
<path d="M54.75 0.25V54.75H0.25V0.25H54.75Z" stroke="#CCDEEB" stroke-width="0.5"/>
</svg>
