<svg width="37" height="37" viewBox="0 0 37 37" fill="none" xmlns="http://www.w3.org/2000/svg">
<mask id="mask0_1198_88" style="mask-type:alpha" maskUnits="userSpaceOnUse" x="0" y="0" width="37" height="37">
<rect width="36.5217" height="36.5217" fill="#D9D9D9"/>
</mask>
<g mask="url(#mask0_1198_88)">
<path d="M8.91304 20.0006C8.4342 19.5217 8.19478 18.9418 8.19478 18.2609C8.19478 17.5799 8.4342 17 8.91304 16.5211C9.39188 16.0423 9.97179 15.8029 10.6528 15.8029C11.3337 15.8029 11.9137 16.0423 12.3925 16.5211C12.8713 17 13.1108 17.5799 13.1108 18.2609C13.1108 18.9418 12.8713 19.5217 12.3925 20.0006C11.9137 20.4794 11.3337 20.7188 10.6528 20.7188C9.97179 20.7188 9.39188 20.4794 8.91304 20.0006ZM10.6528 26.6304C8.3311 26.6304 6.35576 25.8159 4.72674 24.1869C3.09771 22.5579 2.2832 20.5825 2.2832 18.2609C2.2832 15.9392 3.09771 13.9638 4.72674 12.3348C6.35576 10.7058 8.3311 9.8913 10.6528 9.8913C12.2838 9.8913 13.7588 10.3122 15.0776 11.154C16.3964 11.996 17.4031 13.0968 18.0975 14.4565H31.7962L35.6005 18.2609L29.7476 24.0842L26.9236 21.9629L24.0266 24.1135L21.0561 22.0652H18.0975C17.4031 23.4152 16.3964 24.5136 15.0776 25.3602C13.7588 26.207 12.2838 26.6304 10.6528 26.6304ZM10.6528 24.3478C12.1121 24.3478 13.3758 23.9069 14.4438 23.025C15.5121 22.1432 16.2091 21.0624 16.5351 19.7826H21.7733L23.9649 21.2986L26.9384 19.1241L29.5223 21.0997L32.3611 18.2609L30.8394 16.7391H16.5351C16.2091 15.4593 15.5121 14.3785 14.4438 13.4967C13.3758 12.6148 12.1121 12.1739 10.6528 12.1739C8.97886 12.1739 7.54588 12.7699 6.35386 13.9619C5.16183 15.154 4.56581 16.5869 4.56581 18.2609C4.56581 19.9348 5.16183 21.3677 6.35386 22.5598C7.54588 23.7518 8.97886 24.3478 10.6528 24.3478Z" fill="#007BE2"/>
</g>
</svg>
