<svg width="44" height="44" viewBox="0 0 44 44" fill="none" xmlns="http://www.w3.org/2000/svg">
<circle cx="22" cy="22" r="22" fill="#F1EDFE"/>
<mask id="mask0_1653_248" style="mask-type:alpha" maskUnits="userSpaceOnUse" x="10" y="10" width="24" height="24">
<rect x="10" y="10" width="24" height="24" fill="#D9D9D9"/>
</mask>
<g mask="url(#mask0_1653_248)">
<path d="M15.3077 30.5C14.8091 30.5 14.3831 30.3234 14.0298 29.9703C13.6766 29.6169 13.5 29.1909 13.5 28.6923V15.3077C13.5 14.8091 13.6766 14.3831 14.0298 14.0298C14.3831 13.6766 14.8091 13.5 15.3077 13.5H19.7578C19.8206 12.9448 20.0629 12.4727 20.4848 12.0837C20.9064 11.6946 21.4115 11.5 22 11.5C22.5948 11.5 23.1032 11.6946 23.525 12.0837C23.9468 12.4727 24.1859 12.9448 24.2423 13.5H28.6923C29.1909 13.5 29.6169 13.6766 29.9703 14.0298C30.3234 14.3831 30.5 14.8091 30.5 15.3077V28.6923C30.5 29.1909 30.3234 29.6169 29.9703 29.9703C29.6169 30.3234 29.1909 30.5 28.6923 30.5H15.3077ZM15.3077 29H28.6923C28.7692 29 28.8398 28.9679 28.9038 28.9038C28.9679 28.8398 29 28.7693 29 28.6923V15.3077C29 15.2308 28.9679 15.1602 28.9038 15.0962C28.8398 15.0321 28.7692 15 28.6923 15H15.3077C15.2307 15 15.1603 15.0321 15.0963 15.0962C15.0321 15.1602 15 15.2308 15 15.3077V28.6923C15 28.7693 15.0321 28.8398 15.0963 28.9038C15.1603 28.9679 15.2307 29 15.3077 29ZM17.25 26.6345H23.75V25.1348H17.25V26.6345ZM17.25 22.75H26.75V21.25H17.25V22.75ZM17.25 18.8652H26.75V17.3655H17.25V18.8652ZM22.5375 14.1337C22.6792 13.9921 22.75 13.8129 22.75 13.5962C22.75 13.3796 22.6792 13.2004 22.5375 13.0587C22.3958 12.9171 22.2167 12.8462 22 12.8462C21.7833 12.8462 21.6042 12.9171 21.4625 13.0587C21.3208 13.2004 21.25 13.3796 21.25 13.5962C21.25 13.8129 21.3208 13.9921 21.4625 14.1337C21.6042 14.2754 21.7833 14.3462 22 14.3462C22.2167 14.3462 22.3958 14.2754 22.5375 14.1337Z" fill="#4737D9"/>
</g>
</svg>
