<svg width="28" height="28" viewBox="0 0 28 28" fill="none" xmlns="http://www.w3.org/2000/svg">
<mask id="mask0_1259_128" style="mask-type:alpha" maskUnits="userSpaceOnUse" x="0" y="0" width="28" height="28">
<rect width="28" height="28" fill="#D9D9D9"/>
</mask>
<g mask="url(#mask0_1259_128)">
<path d="M12.6421 24.644C12.2151 24.2357 11.983 23.7368 11.9456 23.1475H16.3877C16.3504 23.7368 16.1182 24.2357 15.6912 24.644C15.2642 25.0523 14.756 25.2565 14.1667 25.2565C13.5773 25.2565 13.0691 25.0523 12.6421 24.644ZM9.79167 21.5319V19.7819H18.5417V21.5319H9.79167ZM9.97104 18.1667C8.74915 17.4068 7.78189 16.4139 7.06925 15.1882C6.35642 13.9626 6 12.6221 6 11.1667C6 8.89322 6.79275 6.96375 8.37825 5.37825C9.96375 3.79275 11.8932 3 14.1667 3C16.4401 3 18.3696 3.79275 19.9551 5.37825C21.5406 6.96375 22.3333 8.89322 22.3333 11.1667C22.3333 12.6221 21.9769 13.9626 21.2641 15.1882C20.5514 16.4139 19.5842 17.4068 18.3623 18.1667H9.97104ZM10.4917 16.4167H17.8417C18.7167 15.7944 19.3924 15.0264 19.8687 14.1125C20.3451 13.1986 20.5833 12.2167 20.5833 11.1667C20.5833 9.37778 19.9611 7.86111 18.7167 6.61667C17.4722 5.37222 15.9556 4.75 14.1667 4.75C12.3778 4.75 10.8611 5.37222 9.61667 6.61667C8.37222 7.86111 7.75 9.37778 7.75 11.1667C7.75 12.2167 7.98819 13.1986 8.46458 14.1125C8.94097 15.0264 9.61667 15.7944 10.4917 16.4167Z" fill="#157B34"/>
</g>
</svg>
