<svg width="144" height="14" viewBox="0 0 144 14" fill="none" xmlns="http://www.w3.org/2000/svg">
<path d="M91.9675 0.0238466C91.8541 0.00715397 91.7398 0 91.6256 0H85.5296V13.8843H91.6088C91.7337 13.8843 91.8586 13.8747 91.982 13.8556C100.016 12.5735 99.7444 1.15894 91.9675 0.0246414V0.0238466ZM92.2874 10.9813C92.0018 11.0815 91.7017 11.1316 91.4009 11.1316H88.7969C88.7969 11.1316 90.848 10.4655 91.3461 10.3009C91.8449 10.1364 91.7878 9.66183 91.7878 9.66183V4.13022C91.7878 3.75583 91.3461 3.69224 91.3461 3.69224L88.7969 2.83456H91.5052C91.739 2.83456 91.9721 2.86397 92.1983 2.92518C95.9942 3.95137 96.4336 9.52193 92.2874 10.9821V10.9813ZM90.8647 7.12773C90.8647 6.91152 90.9744 6.73586 91.11 6.73586C91.2455 6.73586 91.3552 6.91152 91.3552 7.12773C91.3552 7.34394 91.2455 7.51882 91.11 7.51882C90.9744 7.51882 90.8647 7.34315 90.8647 7.12773Z" fill="#007BE2"/>
<path d="M107.054 13.9733C106.035 13.9733 105.097 13.8008 104.239 13.455C103.379 13.1092 102.631 12.6228 101.993 11.9948C101.355 11.3677 100.862 10.6308 100.512 9.78583C100.162 8.94087 99.9873 8.0188 99.9873 7.01963C99.9873 6.02046 100.162 5.0825 100.512 4.24389C100.862 3.40529 101.355 2.67241 101.993 2.04445C102.632 1.41728 103.376 0.930019 104.229 0.584244C105.082 0.238469 106.018 0.065979 107.036 0.065979C108.054 0.065979 108.99 0.236084 109.843 0.574705C110.696 0.914121 111.44 1.39741 112.079 2.02537C112.717 2.65333 113.21 3.38939 113.56 4.23436C113.91 5.07932 114.085 6.00854 114.085 7.01963C114.085 8.03073 113.91 8.94405 113.56 9.79537C113.21 10.6475 112.716 11.3867 112.079 12.0139C111.44 12.6419 110.695 13.1251 109.843 13.4646C108.99 13.804 108.06 13.9733 107.054 13.9733ZM107.036 11.3414C107.613 11.3414 108.143 11.2357 108.628 11.0243C109.112 10.8128 109.539 10.5124 109.906 10.1213C110.274 9.73098 110.56 9.27631 110.763 8.75725C110.965 8.23819 111.066 7.65951 111.066 7.01884C111.066 6.37816 110.965 5.79869 110.763 5.28042C110.56 4.76216 110.275 4.30749 109.906 3.9164C109.539 3.52611 109.112 3.22485 108.628 3.01341C108.143 2.80197 107.613 2.69625 107.036 2.69625C106.459 2.69625 105.926 2.80197 105.435 3.01341C104.944 3.22485 104.517 3.52611 104.156 3.9164C103.794 4.30749 103.511 4.76136 103.309 5.28042C103.106 5.79948 103.005 6.37896 103.005 7.01884C103.005 7.65872 103.106 8.23899 103.309 8.75725C103.511 9.27552 103.793 9.73098 104.156 10.1213C104.517 10.5124 104.944 10.8128 105.435 11.0243C105.926 11.2357 106.459 11.3414 107.036 11.3414Z" fill="#007BE2"/>
<path d="M122.588 13.9733C121.569 13.9733 120.631 13.8008 119.772 13.455C118.913 13.1092 118.165 12.6228 117.527 11.9948C116.889 11.3677 116.395 10.6308 116.046 9.78583C115.696 8.94087 115.521 8.0188 115.521 7.01963C115.521 6.02046 115.696 5.0825 116.046 4.24389C116.395 3.40529 116.889 2.67241 117.527 2.04445C118.165 1.41728 118.91 0.930019 119.763 0.584244C120.616 0.238469 121.552 0.065979 122.57 0.065979C123.588 0.065979 124.523 0.236084 125.376 0.574705C126.229 0.914121 126.974 1.39741 127.612 2.02537C128.251 2.65333 128.744 3.38939 129.094 4.23436C129.443 5.07932 129.619 6.00854 129.619 7.01963C129.619 8.03073 129.443 8.94405 129.094 9.79537C128.744 10.6475 128.25 11.3867 127.612 12.0139C126.974 12.6419 126.229 13.1251 125.376 13.4646C124.523 13.804 123.594 13.9733 122.588 13.9733ZM122.57 11.3414C123.146 11.3414 123.677 11.2357 124.162 11.0243C124.646 10.8128 125.072 10.5124 125.44 10.1213C125.808 9.73098 126.094 9.27631 126.296 8.75725C126.499 8.23819 126.6 7.65951 126.6 7.01884C126.6 6.37816 126.499 5.79869 126.296 5.28042C126.094 4.76216 125.809 4.30749 125.44 3.9164C125.072 3.52611 124.646 3.22485 124.162 3.01341C123.676 2.80197 123.146 2.69625 122.57 2.69625C121.993 2.69625 121.459 2.80197 120.969 3.01341C120.478 3.22485 120.051 3.52611 119.689 3.9164C119.328 4.30749 119.045 4.76136 118.843 5.28042C118.64 5.79948 118.539 6.37896 118.539 7.01884C118.539 7.65872 118.64 8.23899 118.843 8.75725C119.045 9.27552 119.327 9.73098 119.689 10.1213C120.051 10.5124 120.478 10.8128 120.969 11.0243C121.459 11.2357 121.993 11.3414 122.57 11.3414Z" fill="#007BE2"/>
<path d="M140.405 9.4186C140.411 9.41621 140.417 9.41303 140.424 9.41065C141.257 9.03308 141.902 8.48222 142.356 7.75888C142.81 7.03553 143.037 6.16752 143.037 5.15563C143.037 3.64535 142.54 2.45699 141.546 1.59295C140.552 0.728118 139.159 0.2957 137.368 0.2957H131.865V13.7428H134.865V9.9774H137.442C137.486 9.9774 137.529 9.9774 137.573 9.97581L140.074 13.7428H143.276L140.405 9.4186ZM139.337 6.8845C138.871 7.29466 138.184 7.49974 137.276 7.49974H134.865V2.83138H137.276C138.184 2.83138 138.871 3.03328 139.337 3.43709C139.804 3.84009 140.037 4.4132 140.037 5.15563C140.037 5.89805 139.804 6.47514 139.337 6.8845Z" fill="#007BE2"/>
<path d="M21.7439 9.4186C21.75 9.41621 21.7561 9.41303 21.7622 9.41065C22.5962 9.03308 23.2405 8.48222 23.6944 7.75888C24.1483 7.03553 24.3753 6.16752 24.3753 5.15563C24.3753 3.64535 23.8787 2.45699 22.8848 1.59295C21.8909 0.728118 20.4979 0.2957 18.7066 0.2957H13.2032V13.7428H16.2032V9.9774H18.7805C18.8247 9.9774 18.8681 9.9774 18.9115 9.97581L21.4119 13.7428H24.6144L21.7439 9.4186ZM20.6761 6.8845C20.2093 7.29466 19.5223 7.49974 18.6145 7.49974H16.2032V2.83138H18.6145C19.5223 2.83138 20.2093 3.03328 20.6761 3.43709C21.1422 3.84009 21.3753 4.4132 21.3753 5.15563C21.3753 5.89805 21.1422 6.47514 20.6761 6.8845Z" fill="white"/>
<path d="M33.7248 0.2957H30.7804L25.0562 13.7428H28.1117L29.2602 10.8613H35.2275L36.3752 13.7428H39.5047L33.7248 0.2957ZM30.2016 8.49812L32.2435 3.3727L34.2861 8.49812H30.2016Z" fill="white"/>
<path d="M52.6638 0.2957V13.7428H50.1977L43.7926 5.58487V13.7428H40.8482V0.2957H43.3143L49.7194 8.4536V0.2957H52.6638Z" fill="white"/>
<path d="M55.7194 13.7428V0.2957H61.5724C62.9715 0.2957 64.2045 0.57391 65.2715 1.13112C66.3393 1.68834 67.1733 2.46971 67.7749 3.47445C68.3759 4.47997 68.6767 5.66117 68.6767 7.01884C68.6767 8.3765 68.3759 9.5577 67.7749 10.5632C67.1733 11.5688 66.3393 12.3493 65.2715 12.9066C64.2037 13.4638 62.9707 13.742 61.5724 13.742H55.7194V13.7428ZM58.7194 11.2071H61.4246C62.2837 11.2071 63.0286 11.0378 63.6607 10.6984C64.2929 10.3589 64.7833 9.87247 65.1329 9.23816C65.4825 8.60463 65.6577 7.86459 65.6577 7.01963C65.6577 6.17467 65.4825 5.41873 65.1329 4.79157C64.7833 4.16441 64.2921 3.68112 63.6607 3.3409C63.0286 3.00149 62.283 2.83218 61.4246 2.83218H58.7194V11.2071Z" fill="white"/>
<path d="M75.1732 13.9733C74.1428 13.9733 73.1519 13.8294 72.2007 13.5409C71.2494 13.2531 70.4855 12.8779 69.909 12.4169L70.9212 10.0736C71.4611 10.4837 72.1108 10.82 72.8724 11.0823C73.6332 11.3446 74.4002 11.4758 75.1732 11.4758C75.762 11.4758 76.2372 11.4122 76.5997 11.2834C76.9615 11.1554 77.2281 10.9853 77.4002 10.7747C77.5715 10.5632 77.6576 10.3168 77.6576 10.0354C77.6576 9.67693 77.522 9.39157 77.2524 9.18092C76.9828 8.96949 76.6233 8.797 76.1755 8.66266C75.7277 8.52832 75.2395 8.40035 74.7125 8.27873C74.1847 8.15711 73.6538 8.01006 73.1207 7.83677C72.5868 7.66349 72.0956 7.43297 71.6485 7.14522C71.2007 6.85748 70.845 6.47911 70.5807 6.01172C70.3164 5.54433 70.1847 4.95849 70.1847 4.25423C70.1847 3.48557 70.3812 2.78448 70.7734 2.15096C71.1656 1.51744 71.7643 1.0111 72.5678 0.633525C73.3713 0.255955 74.3804 0.0667725 75.5952 0.0667725C76.4048 0.0667725 77.2052 0.169313 77.9973 0.374393C78.7886 0.579473 79.4786 0.873581 80.0681 1.25831L79.1298 3.60163C78.5533 3.25585 77.9577 2.99672 77.3446 2.82343C76.7307 2.65094 76.142 2.5643 75.5776 2.5643C75.0133 2.5643 74.516 2.63187 74.1603 2.7662C73.8038 2.90054 73.5434 3.08336 73.3781 3.31388C73.2128 3.54439 73.1298 3.80035 73.1298 4.08253C73.1298 4.44102 73.2646 4.72957 73.535 4.94737C73.8046 5.16516 74.161 5.33448 74.6028 5.45609C75.0445 5.57771 75.535 5.69933 76.075 5.82095C76.615 5.94256 77.1488 6.0928 77.6759 6.27244C78.2037 6.45208 78.6881 6.67942 79.1298 6.95445C79.5715 7.23028 79.9303 7.60149 80.2067 8.06888C80.4824 8.53627 80.621 9.11574 80.621 9.80729C80.621 10.5632 80.4215 11.2548 80.0232 11.8819C79.6241 12.5099 79.0201 13.0155 78.2105 13.3994C77.4009 13.7833 76.3888 13.9757 75.174 13.9757L75.1732 13.9733Z" fill="white"/>
<path d="M9.42799 6.5651L9.396 6.53887L9.42266 6.50708C9.83164 6.03094 10.1142 5.49042 10.2635 4.90141C10.4463 4.17727 10.4173 3.41418 10.1782 2.69481C9.93446 1.96034 9.49349 1.32522 8.90171 0.857036C8.27186 0.358643 7.50263 0.0804333 6.67781 0.0526123H6.67019H0V7.56427L2.01979 5.82904L2.11043 2.31724H6.54757C6.64735 2.31724 6.74102 2.32439 6.82709 2.3387C7.65572 2.47622 8.06775 3.08033 8.17666 3.60018C8.29014 4.1423 8.12335 4.68679 7.71817 5.09457L7.6938 5.11921L5.64506 3.34344L0 8.24788V13.9083H2.12185V9.27407L2.1348 9.26215L5.55976 6.178L5.99007 6.57941L2.59329 9.51413V13.9075H7.32899C7.86135 13.9075 8.37544 13.8153 8.85754 13.634C9.54832 13.3741 10.1104 12.9655 10.5285 12.4194C10.9238 11.9036 11.1706 11.278 11.2421 10.6103C11.3267 9.82016 11.169 9.00063 10.7859 8.23913C10.4729 7.61833 10.0038 7.03965 9.42799 6.56431V6.5651ZM9.10659 10.3058C9.04337 10.8623 8.61306 11.3074 7.89639 11.561C7.7433 11.615 7.5826 11.642 7.41962 11.642H4.76388V10.5419L4.77835 10.53L7.70979 8.04598L7.7334 8.06346C8.19418 8.40685 8.56204 8.7884 8.79661 9.16835C9.03957 9.56103 9.14695 9.95449 9.10659 10.3058Z" fill="white"/>
<path d="M7.71046 8.0959L4.80186 10.5608V11.6021H7.41952C7.5787 11.6021 7.73559 11.5751 7.88411 11.5227C8.58631 11.2746 9.00672 10.8406 9.06841 10.3001C9.10802 9.95752 9.00215 9.57359 8.76377 9.18887C8.52919 8.80971 8.16819 8.43611 7.71046 8.09511V8.0959ZM9.03109 10.2961C8.97093 10.82 8.55966 11.2429 7.87268 11.4853C7.72721 11.5362 7.57489 11.5624 7.42029 11.5624H4.84071V10.5791L7.71274 8.14519C8.15448 8.47745 8.5071 8.84548 8.7333 9.21033C8.96712 9.58711 9.06994 9.96229 9.03186 10.2954L9.03109 10.2961Z" fill="black"/>
<path d="M7.73254 8.06332L7.70893 8.04584L4.77749 10.5299L4.76302 10.5418V11.6419H7.41875C7.58174 11.6419 7.74244 11.6149 7.89552 11.5608C8.6122 11.3073 9.04175 10.8621 9.10572 10.3057C9.14609 9.95436 9.0387 9.56089 8.79575 9.16821C8.56117 8.78826 8.19331 8.40672 7.73254 8.06332ZM9.0684 10.3009C9.00671 10.8407 8.5863 11.2755 7.8841 11.5235C7.73558 11.5759 7.57869 11.6029 7.41952 11.6029H4.80186V10.5616L7.71045 8.09671C8.16894 8.43772 8.52995 8.81131 8.76376 9.19047C9.00214 9.5752 9.10725 9.95992 9.0684 10.3017V10.3009Z" fill="black"/>
</svg>
