<svg width="52" height="52" viewBox="0 0 52 52" fill="none" xmlns="http://www.w3.org/2000/svg">
<path d="M36.5555 9.33333V3.22222C36.5555 2.63285 36.3214 2.06762 35.9047 1.65087C35.4879 1.23413 34.9227 1 34.3333 1H3.22222C2.63285 1 2.06762 1.23413 1.65087 1.65087C1.23413 2.06762 1 2.63285 1 3.22222V34.3333C1 34.9227 1.23413 35.4879 1.65087 35.9047C2.06762 36.3214 2.63285 36.5555 3.22222 36.5555H9.33333" stroke="#001A2D" stroke-width="2" stroke-linecap="round" stroke-linejoin="round"/>
<path d="M15.4445 17.6667C15.4445 17.0773 15.6786 16.5121 16.0953 16.0953C16.5121 15.6786 17.0773 15.4445 17.6667 15.4445H48.7778C49.3671 15.4445 49.9324 15.6786 50.3491 16.0953C50.7659 16.5121 51 17.0773 51 17.6667V48.7778C51 49.3671 50.7659 49.9324 50.3491 50.3491C49.9324 50.7659 49.3671 51 48.7778 51H17.6667C17.0773 51 16.5121 50.7659 16.0953 50.3491C15.6786 49.9324 15.4445 49.3671 15.4445 48.7778V17.6667Z" stroke="#001A2D" stroke-width="2" stroke-linejoin="round"/>
</svg>
