<svg width="59" height="59" viewBox="0 0 59 59" fill="none" xmlns="http://www.w3.org/2000/svg">
<mask id="mask0_2024_526" style="mask-type:alpha" maskUnits="userSpaceOnUse" x="0" y="0" width="59" height="59">
<rect width="58.8398" height="58.8398" fill="#D9D9D9"/>
</mask>
<g mask="url(#mask0_2024_526)">
<path d="M10.5609 50.259C9.3224 50.259 8.27411 49.83 7.41603 48.9719C6.55795 48.1138 6.12891 47.0655 6.12891 45.827V20.3678C6.12891 19.1293 6.55795 18.081 7.41603 17.2229C8.27411 16.3648 9.3224 15.9358 10.5609 15.9358H20.8389V11.787C20.8389 10.5485 21.2679 9.50018 22.126 8.6421C22.9841 7.78402 24.0324 7.35498 25.2709 7.35498H33.5685C34.807 7.35498 35.8553 7.78402 36.7134 8.6421C37.5714 9.50018 38.0005 10.5485 38.0005 11.787V15.9358H48.2785C49.517 15.9358 50.5652 16.3648 51.4233 17.2229C52.2814 18.081 52.7104 19.1293 52.7104 20.3678V45.827C52.7104 47.0655 52.2814 48.1138 51.4233 48.9719C50.5652 49.83 49.517 50.259 48.2785 50.259H10.5609ZM24.5164 15.9358H34.323V11.787C34.323 11.5982 34.2443 11.4253 34.087 11.2684C33.9301 11.1111 33.7573 11.0325 33.5685 11.0325H25.2709C25.0821 11.0325 24.9092 11.1111 24.7523 11.2684C24.595 11.4253 24.5164 11.5982 24.5164 11.787V15.9358ZM49.033 36.162H35.5488V40.4524H23.2905V36.162H9.8064V45.827C9.8064 46.0158 9.88505 46.1887 10.0424 46.3456C10.1993 46.5029 10.3721 46.5815 10.5609 46.5815H48.2785C48.4672 46.5815 48.6401 46.5029 48.797 46.3456C48.9543 46.1887 49.033 46.0158 49.033 45.827V36.162ZM26.968 36.7749H31.8713V31.8716H26.968V36.7749ZM9.8064 32.4845H23.2905V28.1941H35.5488V32.4845H49.033V20.3678C49.033 20.179 48.9543 20.0062 48.797 19.8493C48.6401 19.6919 48.4672 19.6133 48.2785 19.6133H10.5609C10.3721 19.6133 10.1993 19.6919 10.0424 19.8493C9.88505 20.0062 9.8064 20.179 9.8064 20.3678V32.4845Z" fill="#1D85DB"/>
</g>
</svg>
