<svg width="24" height="24" viewBox="0 0 24 24" fill="none" xmlns="http://www.w3.org/2000/svg">
<mask id="mask0_754_262" style="mask-type:alpha" maskUnits="userSpaceOnUse" x="0" y="0" width="24" height="24">
<rect width="24" height="24" fill="#D9D9D9"/>
</mask>
<g mask="url(#mask0_754_262)">
<path d="M19.4229 20.9038L18.3691 19.85L19.7191 18.5H11.5306C11.3819 19.0935 11.0637 19.5753 10.5759 19.9453C10.088 20.3151 9.53702 20.5 8.92285 20.5C8.30885 20.5 7.7621 20.3151 7.2826 19.9453C6.8031 19.5753 6.48068 19.0935 6.31535 18.5H5.17285C4.41002 18.5 3.76102 18.2323 3.22585 17.697C2.69052 17.1618 2.42285 16.5128 2.42285 15.75V10.25H8.1536V7.25H2.42285V5.75H14.6151C15.1203 5.75 15.5479 5.925 15.8979 6.275C16.2479 6.625 16.4229 7.05258 16.4229 7.55775V17H19.6884L18.3691 15.6808L19.4229 14.5963L22.5769 17.75L19.4229 20.9038ZM9.6921 10.25H14.9229V7.55775C14.9229 7.48075 14.8909 7.41025 14.8269 7.34625C14.7627 7.28208 14.6921 7.25 14.6151 7.25H9.6921V10.25ZM9.8086 18.6355C10.0514 18.3927 10.1729 18.0975 10.1729 17.75C10.1729 17.4025 10.0514 17.1073 9.8086 16.8645C9.5656 16.6215 9.27035 16.5 8.92285 16.5C8.57552 16.5 8.28035 16.6215 8.03735 16.8645C7.79435 17.1073 7.67285 17.4025 7.67285 17.75C7.67285 18.0975 7.79435 18.3927 8.03735 18.6355C8.28035 18.8785 8.57552 19 8.92285 19C9.27035 19 9.5656 18.8785 9.8086 18.6355ZM6.31535 17C6.48068 16.4063 6.8031 15.9246 7.2826 15.5548C7.7621 15.1849 8.30885 15 8.92285 15C9.53702 15 10.088 15.1849 10.5759 15.5548C11.0637 15.9246 11.3819 16.4063 11.5306 17H14.9229V11.75H3.92285V15.75C3.92285 16.0975 4.04435 16.3927 4.28735 16.6355C4.53035 16.8785 4.82552 17 5.17285 17H6.31535Z" fill="#727272"/>
</g>
</svg>
