<svg width="39" height="39" viewBox="0 0 39 39" fill="none" xmlns="http://www.w3.org/2000/svg">
<mask id="mask0_1133_2261" style="mask-type:alpha" maskUnits="userSpaceOnUse" x="0" y="0" width="39" height="39">
<rect width="39" height="39" fill="#D9D9D9"/>
</mask>
<g mask="url(#mask0_1133_2261)">
<path d="M7.12481 27.625C6.04148 27.625 5.12484 27.25 4.37491 26.5001C3.62497 25.7502 3.25 24.8335 3.25 23.7502V15.2498C3.25 14.1665 3.62497 13.2498 4.37491 12.4999C5.12484 11.75 6.04148 11.375 7.12481 11.375H28.7999L27.5125 13H7.12481C6.49783 13 5.96619 13.2183 5.52987 13.6549C5.09329 14.0912 4.875 14.6228 4.875 15.2498V23.7502C4.875 24.3772 5.09329 24.9088 5.52987 25.3451C5.96619 25.7817 6.49783 26 7.12481 26H25.9967L25.6689 27.625H7.12481ZM29.0343 26.375L30.0158 20.8752H25.3752L31.9873 12.625H32.7157L31.7342 18.1248H36.3748L29.7627 26.375H29.0343Z" fill="#8B8B8B"/>
</g>
</svg>
