<svg width="12" height="12" viewBox="0 0 12 12" fill="none" xmlns="http://www.w3.org/2000/svg">
<path d="M5.625 11.25C4.05463 11.25 2.72456 10.7052 1.63481 9.61556C0.544938 8.52594 0 7.19613 0 5.62613C0 4.05613 0.544938 2.72594 1.63481 1.63556C2.72456 0.545187 4.05463 0 5.625 0C6.50187 0 7.33169 0.194938 8.11444 0.584813C8.89706 0.974813 9.548 1.52506 10.0673 2.23556V0H11.1923V4.58644H6.60581V3.46163H9.56831C9.17306 2.7375 8.62494 2.16706 7.92394 1.75031C7.22306 1.33344 6.45675 1.125 5.625 1.125C4.375 1.125 3.3125 1.5625 2.4375 2.4375C1.5625 3.3125 1.125 4.375 1.125 5.625C1.125 6.875 1.5625 7.9375 2.4375 8.8125C3.3125 9.6875 4.375 10.125 5.625 10.125C6.5875 10.125 7.45625 9.85 8.23125 9.3C9.00625 8.75 9.55 8.025 9.8625 7.125H11.0481C10.7077 8.349 10.0373 9.3425 9.03675 10.1055C8.03625 10.8685 6.899 11.25 5.625 11.25Z" fill="#1D85DB"/>
</svg>
