<svg width="44" height="44" viewBox="0 0 44 44" fill="none" xmlns="http://www.w3.org/2000/svg">
<circle cx="22" cy="22" r="22" fill="#E1EBFE"/>
<mask id="mask0_1653_247" style="mask-type:alpha" maskUnits="userSpaceOnUse" x="10" y="10" width="24" height="24">
<rect x="10" y="10" width="24" height="24" fill="#D9D9D9"/>
</mask>
<g mask="url(#mask0_1653_247)">
<path d="M15.8568 23.1433C15.5421 22.8286 15.3848 22.4475 15.3848 22C15.3848 21.5525 15.5421 21.1714 15.8568 20.8568C16.1714 20.5421 16.5525 20.3848 17 20.3848C17.4475 20.3848 17.8286 20.5421 18.1433 20.8568C18.4579 21.1714 18.6152 21.5525 18.6152 22C18.6152 22.4475 18.4579 22.8286 18.1433 23.1433C17.8286 23.4579 17.4475 23.6152 17 23.6152C16.5525 23.6152 16.1714 23.4579 15.8568 23.1433ZM17 27.5C15.4743 27.5 14.1762 26.9648 13.1058 25.8942C12.0353 24.8237 11.5 23.5257 11.5 22C11.5 20.4743 12.0353 19.1762 13.1058 18.1057C14.1762 17.0352 15.4743 16.5 17 16.5C18.0718 16.5 19.0411 16.7766 19.9078 17.3298C20.7744 17.8831 21.4359 18.6065 21.8923 19.5H30.8943L33.3943 22L29.548 25.8268L27.6923 24.4328L25.7885 25.846L23.8365 24.5H21.8923C21.4359 25.3872 20.7744 26.1089 19.9078 26.6652C19.0411 27.2218 18.0718 27.5 17 27.5ZM17 26C17.959 26 18.7894 25.7103 19.4913 25.1308C20.1932 24.5513 20.6513 23.841 20.8655 23H24.3077L25.748 23.9963L27.702 22.5673L29.4 23.8655L31.2655 22L30.2655 21H20.8655C20.6513 20.159 20.1932 19.4488 19.4913 18.8693C18.7894 18.2898 17.959 18 17 18C15.9 18 14.9583 18.3917 14.175 19.175C13.3917 19.9583 13 20.9 13 22C13 23.1 13.3917 24.0417 14.175 24.825C14.9583 25.6083 15.9 26 17 26Z" fill="#2153FC"/>
</g>
</svg>
