<svg width="28" height="28" viewBox="0 0 28 28" fill="#D38725" xmlns="http://www.w3.org/2000/svg">
<mask id="mask0_1259_1278" style="mask-type:alpha" maskUnits="userSpaceOnUse" x="0" y="0" width="28" height="28">
<rect width="28" height="28" fill="#D38725"/>
</mask>
<g mask="url(#mask0_1259_1278)">
<path d="M6.32227 12.3915L8.88893 13.4773C9.20607 12.8431 9.54411 12.2302 9.90306 11.6387C10.262 11.0472 10.6576 10.4649 11.0898 9.89188L9.37806 9.55996C9.31817 9.54499 9.26022 9.54684 9.20422 9.56551C9.14803 9.58417 9.09747 9.61596 9.05256 9.66088L6.32227 12.3915ZM10.2843 14.5766L13.5982 17.8725C14.4672 17.509 15.3683 17.0065 16.3016 16.3648C17.235 15.7232 18.1213 14.9827 18.9605 14.1435C20.2691 12.8349 21.2813 11.4091 21.997 9.86621C22.7128 8.32349 23.0668 6.73614 23.0593 5.10417C21.4275 5.09678 19.8391 5.45087 18.294 6.16642C16.749 6.88217 15.322 7.89445 14.0132 9.20326C13.1742 10.0423 12.4338 10.9304 11.7922 11.8676C11.1505 12.8047 10.6479 13.7077 10.2843 14.5766ZM15.31 10.803C15.31 10.2376 15.5074 9.75742 15.9023 9.36251C16.2973 8.96759 16.7822 8.77013 17.3572 8.77013C17.9323 8.77013 18.4174 8.96759 18.8123 9.36251C19.2072 9.75742 19.4047 10.2376 19.4047 10.803C19.4047 11.3683 19.2072 11.8484 18.8123 12.2433C18.4174 12.6382 17.9323 12.8357 17.3572 12.8357C16.7822 12.8357 16.2973 12.6382 15.9023 12.2433C15.5074 11.8484 15.31 11.3683 15.31 10.803ZM15.7723 21.8525L18.5026 19.1223C18.5475 19.0773 18.5793 19.0268 18.5979 18.9706C18.6166 18.9146 18.6185 18.8566 18.6038 18.7968L18.2716 17.085C17.6987 17.5172 17.1166 17.9098 16.5251 18.2627C15.9334 18.6158 15.3205 18.951 14.6864 19.2681L15.7723 21.8525ZM24.6547 3.50234C24.9043 5.75031 24.6384 7.88094 23.857 9.89421C23.0755 11.9075 21.7895 13.8094 19.9991 15.5998L19.7973 15.8016L20.3243 18.4424C20.3947 18.7937 20.379 19.1355 20.2773 19.4676C20.1757 19.7997 19.9999 20.0906 19.75 20.3403L15.1755 24.9037L12.9833 19.7525L8.41118 15.1801L3.25977 12.9768L7.80539 8.41342C8.05506 8.16376 8.34896 7.98613 8.6871 7.88055C9.02504 7.77516 9.36979 7.75766 9.72135 7.82805L12.3846 8.36646C12.4219 8.32913 12.4536 8.29549 12.4796 8.26555C12.5059 8.2356 12.5377 8.20187 12.575 8.16434C14.3655 6.37409 16.2643 5.08706 18.2716 4.30325C20.2788 3.51945 22.4065 3.25248 24.6547 3.50234ZM5.2746 18.7498C5.84296 18.1814 6.53586 17.8961 7.35331 17.8938C8.17056 17.8916 8.86336 18.1747 9.43172 18.7431C10.0001 19.3115 10.2813 20.0043 10.2755 20.8215C10.2695 21.639 9.98229 22.3319 9.41393 22.9002C8.97274 23.3414 8.24882 23.7202 7.24218 24.0365C6.23554 24.3529 4.94395 24.6061 3.36739 24.7961C3.55736 23.2197 3.81238 21.9282 4.13243 20.9215C4.45268 19.9149 4.8334 19.191 5.2746 18.7498ZM6.52206 19.9903C6.31264 20.1997 6.11071 20.5602 5.91627 21.0718C5.72182 21.5833 5.5894 22.1053 5.51902 22.6377C6.0516 22.5675 6.57358 22.4363 7.08497 22.244C7.59656 22.0519 7.95706 21.8511 8.16647 21.6417C8.39981 21.4083 8.5225 21.1282 8.53456 20.8014C8.54642 20.4745 8.43568 20.1944 8.20235 19.9611C7.96902 19.7278 7.68892 19.616 7.36206 19.6257C7.03539 19.6354 6.75539 19.7569 6.52206 19.9903Z" fill="#D38725"/>
</g>
</svg>
