<svg width="37" height="37" viewBox="0 0 37 37" fill="none" xmlns="http://www.w3.org/2000/svg">
<mask id="mask0_1198_85" style="mask-type:alpha" maskUnits="userSpaceOnUse" x="0" y="0" width="37" height="37">
<rect width="36.5217" height="36.5217" fill="#D9D9D9"/>
</mask>
<g mask="url(#mask0_1198_85)">
<path d="M16.8544 32.7174C16.5104 32.7174 16.1658 32.6486 15.8203 32.5112C15.4747 32.3734 15.1636 32.1671 14.8871 31.8922L4.60664 21.6117C4.32766 21.3337 4.12425 21.0267 3.99643 20.6907C3.8686 20.3549 3.80469 20.0133 3.80469 19.6658C3.80469 19.3183 3.8686 18.9717 3.99643 18.6261C4.12425 18.2806 4.32766 17.9697 4.60664 17.6932L17.6468 4.62948C17.8994 4.37738 18.1979 4.17689 18.5423 4.02802C18.8868 3.87889 19.2427 3.80432 19.6102 3.80432H29.9288C30.6975 3.80432 31.3506 4.07506 31.888 4.61655C32.4254 5.15829 32.6941 5.80934 32.6941 6.5697V16.8882C32.6941 17.2595 32.6254 17.6133 32.4879 17.9496C32.3505 18.286 32.152 18.5789 31.8926 18.8285L18.8144 31.8922C18.5392 32.1671 18.2296 32.3734 17.8857 32.5112C17.5421 32.6486 17.1983 32.7174 16.8544 32.7174ZM16.5143 30.2883C16.6116 30.3859 16.7263 30.4348 16.8582 30.4348C16.9898 30.4348 17.1043 30.3859 17.2017 30.2883L30.2799 17.2013C30.3289 17.1526 30.3631 17.099 30.3826 17.0404C30.4019 16.9821 30.4115 16.9236 30.4115 16.865V6.5697C30.4115 6.43325 30.3652 6.32115 30.2727 6.2334C30.1801 6.14539 30.0655 6.10139 29.9288 6.10139H19.4436L6.23376 19.3204C6.13612 19.4177 6.0873 19.5323 6.0873 19.6639C6.0873 19.7958 6.13612 19.9104 6.23376 20.0078L16.5143 30.2883ZM26.5634 11.8372C27.0958 11.8372 27.5484 11.6523 27.9212 11.2825C28.2938 10.9127 28.4801 10.4636 28.4801 9.93503C28.4801 9.40267 28.2944 8.95021 27.9231 8.57763C27.5516 8.20481 27.1004 8.0184 26.5695 8.0184C26.0387 8.0184 25.588 8.20418 25.2175 8.57573C24.8467 8.94729 24.6613 9.39849 24.6613 9.92932C24.6613 10.4599 24.8462 10.9106 25.2159 11.2814C25.586 11.6519 26.0351 11.8372 26.5634 11.8372Z" fill="#007BE2"/>
</g>
</svg>
