<svg width="24" height="24" viewBox="0 0 24 24" fill="none" xmlns="http://www.w3.org/2000/svg">
<mask id="mask0_754_226" style="mask-type:alpha" maskUnits="userSpaceOnUse" x="0" y="0" width="24" height="24">
<rect width="24" height="24" fill="#D9D9D9"/>
</mask>
<g mask="url(#mask0_754_226)">
<path d="M8.03775 17.4615C7.78692 17.4615 7.57692 17.3767 7.40775 17.207C7.23842 17.0373 7.15375 16.8271 7.15375 16.5763C7.15375 16.3254 7.23867 16.1154 7.4085 15.9462C7.57817 15.7769 7.78842 15.6923 8.03925 15.6923C8.29008 15.6923 8.50008 15.7771 8.66925 15.9467C8.83842 16.1164 8.923 16.3267 8.923 16.5775C8.923 16.8283 8.83817 17.0384 8.6685 17.2078C8.49883 17.3769 8.28858 17.4615 8.03775 17.4615ZM11.9992 17.4615C11.7484 17.4615 11.5384 17.3767 11.3692 17.207C11.2001 17.0373 11.1155 16.8271 11.1155 16.5763C11.1155 16.3254 11.2003 16.1154 11.37 15.9462C11.5397 15.7769 11.7499 15.6923 12.0008 15.6923C12.2516 15.6923 12.4616 15.7771 12.6308 15.9467C12.7999 16.1164 12.8845 16.3267 12.8845 16.5775C12.8845 16.8283 12.7997 17.0384 12.63 17.2078C12.4603 17.3769 12.2501 17.4615 11.9992 17.4615ZM15.9607 17.4615C15.7099 17.4615 15.4999 17.3767 15.3307 17.207C15.1616 17.0373 15.077 16.8271 15.077 16.5763C15.077 16.3254 15.1618 16.1154 15.3315 15.9462C15.5012 15.7769 15.7114 15.6923 15.9622 15.6923C16.2131 15.6923 16.4231 15.7771 16.5922 15.9467C16.7616 16.1164 16.8462 16.3267 16.8462 16.5775C16.8462 16.8283 16.7613 17.0384 16.5915 17.2078C16.4218 17.3769 16.2116 17.4615 15.9607 17.4615ZM5.5 13.5V12C5.5 10.3295 6.04908 8.88433 7.14725 7.6645C8.24525 6.44467 9.61283 5.74367 11.25 5.5615V3.5H12.75V5.5615C14.3872 5.74367 15.7548 6.44467 16.8527 7.6645C17.9509 8.88433 18.5 10.3295 18.5 12V13.5H5.5ZM7 12H17C17 10.6167 16.5125 9.4375 15.5375 8.4625C14.5625 7.4875 13.3833 7 12 7C10.6167 7 9.4375 7.4875 8.4625 8.4625C7.4875 9.4375 7 10.6167 7 12ZM8.03775 20.423C7.78692 20.423 7.57692 20.3382 7.40775 20.1685C7.23842 19.9988 7.15375 19.7886 7.15375 19.5378C7.15375 19.2869 7.23867 19.0769 7.4085 18.9078C7.57817 18.7384 7.78842 18.6538 8.03925 18.6538C8.29008 18.6538 8.50008 18.7386 8.66925 18.9083C8.83842 19.0779 8.923 19.2882 8.923 19.539C8.923 19.7898 8.83817 19.9999 8.6685 20.1693C8.49883 20.3384 8.28858 20.423 8.03775 20.423ZM11.9992 20.423C11.7484 20.423 11.5384 20.3382 11.3692 20.1685C11.2001 19.9988 11.1155 19.7886 11.1155 19.5378C11.1155 19.2869 11.2003 19.0769 11.37 18.9078C11.5397 18.7384 11.7499 18.6538 12.0008 18.6538C12.2516 18.6538 12.4616 18.7386 12.6308 18.9083C12.7999 19.0779 12.8845 19.2882 12.8845 19.539C12.8845 19.7898 12.7997 19.9999 12.63 20.1693C12.4603 20.3384 12.2501 20.423 11.9992 20.423ZM15.9607 20.423C15.7099 20.423 15.4999 20.3382 15.3307 20.1685C15.1616 19.9988 15.077 19.7886 15.077 19.5378C15.077 19.2869 15.1618 19.0769 15.3315 18.9078C15.5012 18.7384 15.7114 18.6538 15.9622 18.6538C16.2131 18.6538 16.4231 18.7386 16.5922 18.9083C16.7616 19.0779 16.8462 19.2882 16.8462 19.539C16.8462 19.7898 16.7613 19.9999 16.5915 20.1693C16.4218 20.3384 16.2116 20.423 15.9607 20.423Z" fill="#727272"/>
</g>
</svg>
