<svg width="71" height="71" viewBox="0 0 71 71" fill="none" xmlns="http://www.w3.org/2000/svg">
<mask id="mask0_2024_541" style="mask-type:alpha" maskUnits="userSpaceOnUse" x="0" y="0" width="71" height="71">
<rect width="71" height="71" fill="#D9D9D9"/>
</mask>
<g mask="url(#mask0_2024_541)">
<path d="M22.1876 46.5937H26.6251V55.2979C26.6251 55.5637 26.7104 55.7818 26.881 55.9524C27.0516 56.123 27.2698 56.2083 27.5355 56.2083H43.4647C43.7304 56.2083 43.9486 56.123 44.1192 55.9524C44.2898 55.7818 44.3751 55.5637 44.3751 55.2979V15.7021C44.3751 15.4363 44.2898 15.2182 44.1192 15.0476C43.9486 14.877 43.7304 14.7917 43.4647 14.7917H27.5355C27.2698 14.7917 27.0516 14.877 26.881 15.0476C26.7104 15.2182 26.6251 15.4363 26.6251 15.7021V42.1562H22.1876V15.7021C22.1876 14.2313 22.7112 12.9723 23.7585 11.925C24.8057 10.8778 26.0647 10.3542 27.5355 10.3542H43.4647C44.9355 10.3542 46.1945 10.8778 47.2417 11.925C48.289 12.9723 48.8126 14.2313 48.8126 15.7021V55.2979C48.8126 56.7687 48.289 58.0277 47.2417 59.075C46.1945 60.1222 44.9355 60.6458 43.4647 60.6458H27.5355C26.0647 60.6458 24.8057 60.1222 23.7585 59.075C22.7112 58.0277 22.1876 56.7687 22.1876 55.2979V46.5937ZM35.5001 29.2416C36.2244 29.2416 36.8417 28.9867 37.352 28.4769C37.8618 27.9666 38.1168 27.3493 38.1168 26.625C38.1168 25.9007 37.8618 25.2834 37.352 24.7731C36.8417 24.2633 36.2244 24.0083 35.5001 24.0083C34.7758 24.0083 34.1585 24.2633 33.6482 24.7731C33.1384 25.2834 32.8835 25.9007 32.8835 26.625C32.8835 27.3493 33.1384 27.9666 33.6482 28.4769C34.1585 28.9867 34.7758 29.2416 35.5001 29.2416ZM58.4264 25.8854C57.7973 25.8854 57.2705 25.6727 56.846 25.2472C56.4209 24.8221 56.2084 24.2953 56.2084 23.6667V11.8333C56.2084 11.2047 56.4212 10.6779 56.8467 10.2528C57.2722 9.82733 57.7993 9.61458 58.4279 9.61458C59.0571 9.61458 59.5839 9.82733 60.0084 10.2528C60.4334 10.6779 60.6459 11.2047 60.6459 11.8333V23.6667C60.6459 24.2953 60.4332 24.8221 60.0077 25.2472C59.5822 25.6727 59.0551 25.8854 58.4264 25.8854ZM16.1001 46.5937C15.4715 46.5937 14.9446 46.381 14.5196 45.9555C14.0941 45.53 13.8813 45.0029 13.8813 44.3743C13.8813 43.7451 14.0941 43.2183 14.5196 42.7938C14.9446 42.3688 15.4715 42.1562 16.1001 42.1562H35.8987C36.5269 42.1562 37.0537 42.369 37.4792 42.7945C37.9042 43.22 38.1168 43.7471 38.1168 44.3757C38.1168 45.0049 37.9042 45.5317 37.4792 45.9562C37.0537 46.3812 36.5269 46.5937 35.8987 46.5937H16.1001Z" fill="#1D85DB"/>
</g>
</svg>
