<?xml version="1.0" encoding="utf-8"?>
<!-- Generator: Adobe Illustrator 25.2.0, SVG Export Plug-In . SVG Version: 6.00 Build 0)  -->
<svg version="1.1" id="Layer_1" xmlns="http://www.w3.org/2000/svg" xmlns:xlink="http://www.w3.org/1999/xlink" x="0px" y="0px"
	 viewBox="0 0 101.9 87.3" style="enable-background:new 0 0 101.9 87.3;" xml:space="preserve">
<style type="text/css">
	.st0{display:none;}
	.st1{display:inline;}
	.st2{display:inline;fill:none;stroke:#00A651;stroke-width:0.5;stroke-miterlimit:10;}
	.st3{display:inline;fill:none;stroke:#BE1E2D;stroke-width:0.5;stroke-miterlimit:10;}
	.st4{display:inline;fill:none;stroke:#2B3990;stroke-width:0.5;stroke-miterlimit:10;}
	.st5{display:inline;fill:none;stroke:#00A79D;stroke-width:0.25;stroke-miterlimit:10;}
	.st6{display:inline;fill:#00A79D;}
	.st7{display:inline;fill:#0A302C;}
	.st8{display:inline;fill:none;stroke:#1C75BC;stroke-width:0.25;stroke-miterlimit:10;}
	.st9{display:inline;fill:#1C75BC;}
	.st10{fill:#00A79D;}
	.st11{fill:#1C75BC;}
	.st12{display:inline;fill:#026767;}
	.st13{display:inline;fill:#01968C;}
	.st14{display:inline;fill:#204743;}
	.st15{fill:#026767;}
	.st16{fill:#01968C;}
	.st17{fill:#204743;}
</style>
<g id="Layer_1_1_" class="st0">
	<path class="st1" d="M-116,133.7v-17h10.3v2.1h-8v5.3h7.2v2h-7.2v5.4h8v2.1L-116,133.7L-116,133.7z"/>
	<path class="st1" d="M-92.1,118c0-0.8,0.7-1.5,1.5-1.5s1.5,0.6,1.5,1.5c0,0.8-0.7,1.5-1.5,1.5C-91.5,119.5-92.1,118.8-92.1,118z
		 M-91.7,122.2h2.2v11.5h-2.2V122.2z"/>
	<path class="st1" d="M-85.3,133.7V124h-2.3v-1.9h2.3v-3.6h2.2v3.6h2.3v1.9h-2.3v9.6L-85.3,133.7L-85.3,133.7z"/>
	<path class="st1" d="M-79.8,127.9c0-3.6,2.3-6.1,5.6-6.1c3.3,0,5.4,2.3,5.4,5.7v0.8h-8.9c0.2,2.4,1.4,3.8,3.6,3.8
		c1.7,0,2.8-0.7,3.2-2h2.1c-0.6,2.5-2.5,3.8-5.3,3.8C-77.4,133.9-79.8,131.5-79.8,127.9z M-77.6,126.9h6.6c0-1.9-1.2-3.2-3.2-3.2
		C-76.1,123.7-77.3,124.9-77.6,126.9z"/>
	<path class="st1" d="M-2.5,117.8l3.7,0.1c1.8,0,1.9,0.3,1.9,2.4c0,0.9,0.1,2,0.1,2.9l0,0H1.5c-0.1,0,0-0.4-0.1-1.2
		c0-2.4-1.7-2.8-3.4-2.8c-1.4,0-4.1-0.5-4.1,2.3c0,0.7,0,1.1,0,1.9v3.4h7.3l0.1,0.1v1.6l-0.1,0.1h-7.3v3.4c0,1.9,0.9,3.2,2.7,3.8
		l0.7,0.1h0.4c1.5,0,2.6-0.8,3.3-2.5l0.2-1.1h1.6l0.1,0.1c0,1.9-0.9,3.5-2.8,4.7c-0.9,0.4-1.7,0.6-2.6,0.6h-0.1
		c-1.9,0-3.5-0.9-4.7-2.8c-0.4-0.8-0.6-1.6-0.6-2.3V123c0-1.6-0.3-3.5,1.3-4.7C-5.4,117.7-3.4,117.8-2.5,117.8z"/>
	<text transform="matrix(1 0 0 1 -13.8854 185.4629)" class="st1" style="font-family:'Poppins-Light'; font-size:12px;">Ellite </text>
	
		<text transform="matrix(1 0 0 1 -65.0807 133.9411)" style="display:inline;fill:#27AAE1; font-family:'AppleGaramondLight-Italic'; font-size:25.5037px;">FX</text>
	
		<text transform="matrix(1 0 0 1 43.4781 136.2807)" style="display:inline;fill:#27AAE1; font-family:'AppleGaramondLight-Italic'; font-size:25.5037px;">FX</text>
	<polygon class="st2" points="-103.3,116.7 -99.5,114.5 -99.5,117.3 -100.5,119.5 -99.3,119.5 -99.3,131.7 -103.3,133.8 	"/>
	<polygon class="st3" points="-98.4,112.1 -94.3,110 -94.3,127 -98.4,128.9 -98.4,119.4 -97.3,119.4 -98.4,116.9 	"/>
	<path class="st1" d="M-115.9,178.3v-17h10.3v2.1h-8v5.3h7.2v2h-7.2v5.4h8v2.1L-115.9,178.3L-115.9,178.3z"/>
	<path class="st1" d="M-92,162.6c0-0.8,0.7-1.5,1.5-1.5s1.5,0.6,1.5,1.5c0,0.8-0.7,1.5-1.5,1.5S-92,163.4-92,162.6z M-91.6,166.8
		h2.2v11.5h-2.2V166.8z"/>
	<path class="st1" d="M-85.2,178.3v-9.6h-2.3v-1.9h2.3v-3.6h2.2v3.6h2.3v1.9H-83v9.6H-85.2z"/>
	<path class="st1" d="M-79.6,172.6c0-3.6,2.3-6.1,5.6-6.1c3.3,0,5.4,2.3,5.4,5.7v0.8h-8.9c0.2,2.4,1.4,3.8,3.6,3.8
		c1.7,0,2.8-0.7,3.2-2h2.1c-0.6,2.5-2.5,3.8-5.3,3.8C-77.3,178.6-79.6,176.1-79.6,172.6z M-77.5,171.5h6.6c0-1.9-1.2-3.2-3.2-3.2
		C-76,168.3-77.2,169.5-77.5,171.5z"/>
	
		<text transform="matrix(1 0 0 1 -64.9683 178.569)" style="display:inline;fill:#2B3990; font-family:'AppleGaramondLight-Italic'; font-size:25.5037px;">FX</text>
	
		<text transform="matrix(1 0 0 1 12.9222 185.5586)" class="st9" style="font-family:'AppleGaramondLight-Italic'; font-size:12.4633px;">FX</text>
	<polygon class="st4" points="-103.2,161.3 -99.4,159.1 -99.4,162 -100.4,164.1 -99.1,164.1 -99.1,176.3 -103.2,178.4 	"/>
	<polygon class="st4" points="-98.3,156.7 -94.2,154.6 -94.2,171.7 -98.3,173.5 -98.3,164.1 -97.2,164.1 -98.3,161.6 	"/>
	<path class="st1" d="M16.8,120.6c0-0.8,0.7-1.5,1.5-1.5s1.5,0.6,1.5,1.5c0,0.8-0.7,1.5-1.5,1.5C17.4,122.1,16.8,121.4,16.8,120.6z
		 M17.2,124.8h2.2v11.5h-2.2V124.8z"/>
	<path class="st1" d="M23.6,136.3v-9.6h-2.3v-1.9h2.3v-3.6h2.2v3.6H28v1.9h-2.3v9.6H23.6z"/>
	<path class="st1" d="M29.2,130.6c0-3.6,2.3-6.1,5.6-6.1s5.4,2.3,5.4,5.7v0.8h-8.9c0.2,2.4,1.4,3.8,3.6,3.8c1.7,0,2.8-0.7,3.2-2h2.1
		c-0.6,2.5-2.5,3.8-5.3,3.8C31.5,136.6,29.2,134.1,29.2,130.6z M31.3,129.5h6.6c0-1.9-1.2-3.2-3.2-3.2
		C32.8,126.3,31.6,127.5,31.3,129.5z"/>
	<polygon class="st2" points="5.6,119.3 9.4,117.1 9.4,119.9 8.4,122.1 9.6,122.1 9.6,134.3 5.6,136.4 	"/>
	<polygon class="st3" points="10.5,114.7 14.6,112.6 14.6,129.6 10.5,131.5 10.5,122.1 11.6,122.1 10.5,119.6 	"/>
	<path class="st1" d="M35.2,198.8v3.1h3.2v0.7h-3.2v3.2h3.5v0.7h-4.4v-8.4h4.4v0.7H35.2z"/>
	<path class="st1" d="M45.9,198.5c-0.1-0.1-0.2-0.3-0.2-0.4c0-0.2,0.1-0.3,0.2-0.4c0.1-0.1,0.3-0.2,0.4-0.2s0.3,0.1,0.4,0.2
		s0.2,0.3,0.2,0.4c0,0.2-0.1,0.3-0.2,0.4s-0.3,0.2-0.4,0.2S46,198.7,45.9,198.5z M46.7,200v6.6h-0.8V200H46.7z"/>
	<path class="st1" d="M49.7,200.7v4.1c0,0.4,0.1,0.7,0.2,0.8c0.2,0.2,0.4,0.2,0.8,0.2h0.8v0.7h-0.9c-0.6,0-1-0.1-1.3-0.4
		c-0.3-0.3-0.4-0.7-0.4-1.4v-4.1H48V200h0.9v-1.6h0.9v1.6h1.8v0.7H49.7z"/>
	<path class="st1" d="M58.8,203.6h-5.4c0,0.5,0.1,0.9,0.4,1.3c0.2,0.4,0.5,0.6,0.9,0.8s0.7,0.3,1.2,0.3s1-0.1,1.4-0.4
		s0.6-0.6,0.7-1.1h0.9c-0.2,0.6-0.5,1.2-1,1.6c-0.5,0.4-1.2,0.6-2,0.6c-0.6,0-1.2-0.1-1.7-0.4c-0.5-0.3-0.9-0.7-1.1-1.2
		c-0.3-0.5-0.4-1.1-0.4-1.8s0.1-1.3,0.4-1.8s0.7-0.9,1.1-1.2c0.5-0.3,1-0.4,1.7-0.4s1.2,0.1,1.6,0.4c0.5,0.3,0.8,0.6,1.1,1.1
		s0.4,1,0.4,1.5C58.8,203.2,58.8,203.4,58.8,203.6z M57.7,201.6c-0.2-0.3-0.5-0.6-0.8-0.8c-0.4-0.2-0.7-0.3-1.2-0.3
		c-0.6,0-1.2,0.2-1.6,0.6c-0.4,0.4-0.7,1-0.7,1.7H58C58,202.4,57.9,202,57.7,201.6z"/>
	
		<text transform="matrix(1 0 0 1 60.2144 206.6132)" class="st6" style="font-family:'AppleGaramondLight-Italic'; font-size:12.4633px;">FX</text>
	<text transform="matrix(1 0 0 1 33.3441 185.5401)" class="st1" style="font-family:'Higuen-Regular'; font-size:12px;">Ellite </text>
	<text transform="matrix(1 0 0 1 142.965 104.8507)" class="st1" style="font-family:'Higuen-Regular'; font-size:12px;">Ellite </text>
	<path class="st1" d="M87.7,185.6c0.5,0,0.8-0.3,0.8-1.6v-4.8c0-1.3-0.3-1.6-0.8-1.6v-0.1h6.2l0.5,1.8h-0.1
		c-0.4-0.9-1.5-1.6-2.5-1.6h-2.2v4.2c0.4-0.9,1.1-1.1,2.1-0.8c0.6,0.2,1.2,0.5,1.7-0.2h0.1c-0.4,1.2-1.1,1.5-2.2,1.1
		c-0.6-0.2-1.2-0.5-1.7,0.1v3.3h2.1c1.2,0,2.5-0.8,2.9-1.9h0.1l-0.7,2.2L87.7,185.6L87.7,185.6L87.7,185.6z"/>
	<path class="st1" d="M103.3,185.6v0.1h-2.6v-0.1c0.5,0,0.8-0.3,0.8-1.6v-2.3c0-1.3-0.3-1.6-0.8-1.6V180c0.7,0,1.5-0.3,1.8-0.8v4.8
		C102.6,185.2,102.8,185.6,103.3,185.6z M102.8,178.2c0,0.4-0.4,0.8-0.8,0.8s-0.8-0.3-0.8-0.8c0-0.4,0.4-0.8,0.8-0.8
		C102.5,177.5,102.8,177.8,102.8,178.2z"/>
	<path class="st1" d="M105.1,178.1L105.1,178.1l0.1,1h1.5v0.2h-1.5v4.8c0,1.2,0.7,1.2,1.4,0.4l0.1,0.1c-0.4,0.5-0.8,1-1.5,1
		c-0.8,0-1.1-0.8-1.1-1.5v-4.8h-0.8v-0.2C104,179.1,104.8,178.7,105.1,178.1z"/>
	<path class="st1" d="M112.8,181.8c-1.6,0-3.3,0-4.9,0c0,0.3,0,0.6,0.1,0.9c0.3,1.4,1.4,2.7,3,2.5c1-0.1,1.9-0.8,2.3-2h0.1
		c-0.4,1.4-1.6,2.5-3.2,2.5c-1.8,0-3.2-1.5-3.2-3.2c0-1.8,1.5-3.3,3.2-3.3C111.8,179.1,112.8,180.5,112.8,181.8z M109.1,179.5
		c-0.8,0.3-1.2,1.1-1.3,2.1h3.9C111.5,180,110.2,179.2,109.1,179.5z"/>
	
		<text transform="matrix(1 0 0 1 60.1516 185.6358)" class="st6" style="font-family:'AppleGaramondLight-Italic'; font-size:12.4633px;">FX</text>
	<text transform="matrix(1 0 0 1 169.4205 104.8508)" class="st6" style="font-family:'AppleGaramondLight'; font-size:12.4633px;">FX</text>
	<text transform="matrix(1 0 0 1 200.7327 104.5296)" class="st1" style="font-family:'Higuen-Regular'; font-size:12px;">Ellite </text>
	<text transform="matrix(1 0 0 1 227.1883 104.5297)" class="st6" style="font-family:'AppleGaramondLight'; font-size:12.4633px;">FX</text>
	<text transform="matrix(1 0 0 1 144.7583 142.9129)" class="st1" style="font-family:'Higuen-Regular'; font-size:12px;">Ellite </text>
	<text transform="matrix(1 0 0 1 171.2138 142.913)" class="st6" style="font-family:'AppleGaramondLight'; font-size:12.4633px;">FX</text>
	<text transform="matrix(1 0 0 1 200.5504 144.1044)" class="st1" style="font-family:'Higuen-Regular'; font-size:12px;">Ellite </text>
	<text transform="matrix(1 0 0 1 227.006 144.1045)" class="st6" style="font-family:'AppleGaramondLight'; font-size:12.4633px;">FX</text>
	<text transform="matrix(0.992 0 0 1 202.8765 181.2316)" class="st6" style="font-family:'Higuen-Regular'; font-size:25.3194px;">FX</text>
	<path class="st5" d="M49.9,167.1l0.8-0.5c0.2-0.1,0.5,0,0.5,0.3v0.5v0.1l-0.3,0.7h0.5v4.4c0,0.1-0.1,0.2-0.2,0.3l-0.9,0.5
		c-0.2,0.1-0.4,0-0.4-0.3v-5.7C49.7,167.2,49.8,167.1,49.9,167.1z"/>
	<path class="st6" d="M51.8,165.3l0.7-0.3c0.3-0.1,0.6,0.1,0.6,0.4v5.2c0,0.2-0.1,0.3-0.2,0.4l-0.7,0.3c-0.3,0.1-0.6-0.1-0.6-0.4
		v-2.8H52l-0.4-0.8c0-0.1,0-0.1,0-0.2v-1.4C51.6,165.5,51.7,165.4,51.8,165.3z"/>
	<path class="st5" d="M40.3,198.6l1-0.6c0.3-0.2,0.6,0,0.6,0.3v0.6c0,0.1,0,0.1,0,0.2l-0.4,0.9H42v5.6c0,0.1-0.1,0.3-0.2,0.3
		l-1.1,0.6c-0.3,0.1-0.6-0.1-0.6-0.3V199C40.1,198.7,40.2,198.6,40.3,198.6z"/>
	<path class="st6" d="M42.8,196.3l0.8-0.4c0.3-0.2,0.7,0.1,0.7,0.5v6.7c0,0.2-0.1,0.4-0.3,0.5l-0.8,0.4c-0.3,0.2-0.7-0.1-0.7-0.5
		V200H43l-0.5-1c0-0.1,0-0.1,0-0.2V197C42.5,196.6,42.6,196.4,42.8,196.3z"/>
	<path class="st5" d="M95.8,177.5l1-0.6c0.3-0.2,0.6,0,0.6,0.3v0.6c0,0.1,0,0.1,0,0.2l-0.4,0.9h0.6v5.6c0,0.1-0.1,0.3-0.2,0.3
		l-1.1,0.6c-0.3,0.1-0.6-0.1-0.6-0.3v-7.2C95.6,177.7,95.7,177.5,95.8,177.5z"/>
	<path class="st6" d="M98.2,175.2l0.8-0.4c0.3-0.2,0.7,0.1,0.7,0.5v6.7c0,0.2-0.1,0.4-0.3,0.5l-0.8,0.4c-0.3,0.2-0.7-0.1-0.7-0.5
		v-3.5h0.5l-0.5-1c0-0.1,0-0.1,0-0.2v-1.8C98,175.5,98.1,175.3,98.2,175.2z"/>
	<path class="st1" d="M87,205.9c0.5,0,0.8-0.3,0.8-1.6v-4.8c0-1.3-0.3-1.6-0.8-1.6v-0.1h6.2l0.5,1.8h-0.1c-0.4-0.9-1.5-1.6-2.5-1.6
		h-2.2v4.2c0.4-0.9,1.1-1.1,2.1-0.8c0.6,0.2,1.2,0.5,1.7-0.2h0.1c-0.4,1.2-1.1,1.5-2.2,1.1c-0.6-0.2-1.2-0.5-1.7,0.1v3.3H91
		c1.2,0,2.5-0.8,2.9-1.9H94l-0.7,2.2L87,205.9L87,205.9z"/>
	<path class="st1" d="M102.7,205.9v0.1h-2.6v-0.1c0.5,0,0.8-0.3,0.8-1.6V202c0-1.3-0.3-1.6-0.8-1.6v-0.1c0.7,0,1.5-0.3,1.8-0.8v4.8
		C101.9,205.6,102.2,206,102.7,205.9z M102.2,198.6c0,0.4-0.4,0.8-0.8,0.8s-0.8-0.3-0.8-0.8c0-0.4,0.4-0.8,0.8-0.8
		C101.8,197.9,102.2,198.2,102.2,198.6z"/>
	<path class="st1" d="M104.4,198.5L104.4,198.5l0.1,1h1.5v0.2h-1.5v4.8c0,1.2,0.7,1.2,1.4,0.4l0.1,0.1c-0.4,0.5-0.8,1-1.5,1
		c-0.8,0-1.1-0.8-1.1-1.5v-4.8h-0.8v-0.2C103.3,199.5,104.1,199.1,104.4,198.5z"/>
	<path class="st1" d="M112.1,202.2c-1.6,0-3.3,0-4.9,0c0,0.3,0,0.6,0.1,0.9c0.3,1.4,1.4,2.7,3,2.5c1-0.1,1.9-0.8,2.3-2h0.1
		c-0.4,1.4-1.6,2.5-3.2,2.5c-1.8,0-3.2-1.5-3.2-3.2c0-1.8,1.5-3.3,3.2-3.3C111.1,199.5,112.1,200.9,112.1,202.2z M108.5,199.9
		c-0.8,0.3-1.2,1.1-1.3,2.1h3.9C110.9,200.4,109.5,199.6,108.5,199.9z"/>
	<path class="st7" d="M35.4,217.5v3.1h3.2v0.7h-3.2v3.2h3.5v0.7h-4.4v-8.4h4.4v0.7H35.4z"/>
	<path class="st7" d="M46.1,217.2c-0.1-0.1-0.2-0.3-0.2-0.4c0-0.2,0.1-0.3,0.2-0.4c0.1-0.1,0.3-0.2,0.4-0.2s0.3,0.1,0.4,0.2
		s0.2,0.3,0.2,0.4c0,0.2-0.1,0.3-0.2,0.4s-0.3,0.2-0.4,0.2S46.2,217.4,46.1,217.2z M46.9,218.7v6.6h-0.8v-6.6H46.9z"/>
	<path class="st7" d="M49.9,219.4v4.1c0,0.4,0.1,0.7,0.2,0.8c0.2,0.2,0.4,0.2,0.8,0.2h0.8v0.7h-0.9c-0.6,0-1-0.1-1.3-0.4
		c-0.3-0.3-0.4-0.7-0.4-1.4v-4.1h-0.9v-0.7h0.9V217H50v1.6h1.8v0.7L49.9,219.4L49.9,219.4z"/>
	<path class="st7" d="M59,222.3h-5.4c0,0.5,0.1,0.9,0.4,1.3c0.2,0.4,0.5,0.6,0.9,0.8s0.7,0.3,1.2,0.3s1-0.1,1.4-0.4s0.6-0.6,0.7-1.1
		h0.9c-0.2,0.6-0.5,1.2-1,1.6c-0.5,0.4-1.2,0.6-2,0.6c-0.6,0-1.2-0.1-1.7-0.4c-0.5-0.3-0.9-0.7-1.1-1.2c-0.3-0.5-0.4-1.1-0.4-1.8
		s0.1-1.3,0.4-1.8s0.7-0.9,1.1-1.2c0.5-0.3,1-0.4,1.7-0.4s1.2,0.1,1.6,0.4c0.5,0.3,0.8,0.6,1.1,1.1s0.4,1,0.4,1.5
		C59,221.9,59,222.1,59,222.3z M57.9,220.3c-0.2-0.3-0.5-0.6-0.8-0.8c-0.4-0.2-0.7-0.3-1.2-0.3c-0.6,0-1.2,0.2-1.6,0.6
		c-0.4,0.4-0.7,1-0.7,1.7h4.6C58.2,221.1,58.1,220.7,57.9,220.3z"/>
	
		<text transform="matrix(1 0 0 1 60.3881 225.3078)" class="st6" style="font-family:'AppleGaramondLight-Italic'; font-size:12.4633px;">FX</text>
	<path class="st5" d="M40.5,217.2l1-0.6c0.3-0.2,0.6,0,0.6,0.3v0.6c0,0.1,0,0.1,0,0.2l-0.4,0.9h0.6v5.6c0,0.1-0.1,0.3-0.2,0.3
		l-1.1,0.6c-0.3,0.1-0.6-0.1-0.6-0.3v-7.2C40.3,217.4,40.4,217.3,40.5,217.2z"/>
	<path class="st6" d="M42.9,215l0.8-0.4c0.3-0.2,0.7,0.1,0.7,0.5v6.7c0,0.2-0.1,0.4-0.3,0.5l-0.8,0.4c-0.3,0.2-0.7-0.1-0.7-0.5v-3.5
		h0.5l-0.5-1c0-0.1,0-0.1,0-0.2v-1.8C42.7,215.3,42.8,215.1,42.9,215z"/>
	<path class="st1" d="M-12.1,198.8v3.1h3.2v0.7h-3.2v3.2h3.5v0.7H-13v-8.4h4.4v0.7H-12.1z"/>
	<path class="st1" d="M-1.4,198.5c-0.1-0.1-0.2-0.3-0.2-0.4c0-0.2,0.1-0.3,0.2-0.4c0.1-0.1,0.3-0.2,0.4-0.2s0.3,0.1,0.4,0.2
		s0.2,0.3,0.2,0.4c0,0.2-0.1,0.3-0.2,0.4s-0.3,0.2-0.4,0.2S-1.3,198.7-1.4,198.5z M-0.6,200v6.6h-0.8V200H-0.6z"/>
	<path class="st1" d="M2.4,200.7v4.1c0,0.4,0.1,0.7,0.2,0.8c0.2,0.2,0.4,0.2,0.8,0.2h0.8v0.7H3.3c-0.6,0-1-0.1-1.3-0.4
		c-0.3-0.3-0.4-0.7-0.4-1.4v-4.1H0.7V200h0.9v-1.6h0.9v1.6h1.8v0.7H2.4z"/>
	<path class="st1" d="M11.5,203.6H6.1c0,0.5,0.1,0.9,0.4,1.3c0.2,0.4,0.5,0.6,0.9,0.8s0.7,0.3,1.2,0.3s1-0.1,1.4-0.4
		s0.6-0.6,0.7-1.1h0.9c-0.2,0.6-0.5,1.2-1,1.6c-0.5,0.4-1.2,0.6-2,0.6c-0.6,0-1.2-0.1-1.7-0.4c-0.5-0.3-0.9-0.7-1.1-1.2
		c-0.3-0.5-0.4-1.1-0.4-1.8s0.1-1.3,0.4-1.8s0.7-0.9,1.1-1.2c0.5-0.3,1-0.4,1.7-0.4s1.2,0.1,1.6,0.4c0.5,0.3,0.8,0.6,1.1,1.1
		s0.4,1,0.4,1.5C11.6,203.2,11.5,203.4,11.5,203.6z M10.4,201.6c-0.2-0.3-0.5-0.6-0.8-0.8c-0.4-0.2-0.7-0.3-1.2-0.3
		c-0.6,0-1.2,0.2-1.6,0.6c-0.4,0.4-0.7,1-0.7,1.7h4.6C10.7,202.4,10.6,202,10.4,201.6z"/>
	
		<text transform="matrix(1 0 0 1 12.9221 206.6132)" class="st9" style="font-family:'AppleGaramondLight-Italic'; font-size:12.4633px;">FX</text>
	<path class="st8" d="M-7,198.6l1-0.6c0.3-0.2,0.6,0,0.6,0.3v0.6c0,0.1,0,0.1,0,0.2l-0.4,0.9h0.6v5.6c0,0.1-0.1,0.3-0.2,0.3
		l-1.1,0.6c-0.3,0.1-0.6-0.1-0.6-0.3V199C-7.2,198.7-7.1,198.6-7,198.6z"/>
	<path class="st9" d="M-4.5,196.3l0.8-0.4c0.3-0.2,0.7,0.1,0.7,0.5v6.7c0,0.2-0.1,0.4-0.3,0.5l-0.8,0.4c-0.3,0.2-0.7-0.1-0.7-0.5
		V200h0.5l-0.5-1c0-0.1,0-0.1,0-0.2V197C-4.8,196.6-4.7,196.4-4.5,196.3z"/>
	<g class="st1">
		<path class="st10" d="M55.4,166.5c0.8,1,1.3,2.4,1.1,3.7c-0.1,1.4-0.9,2.7-2,3.5c-1.1,0.9-2.5,1.3-3.9,1.1
			c-1.4-0.1-2.6-0.9-3.4-1.9c1,0.8,2.2,1.1,3.4,1.1s2.3-0.4,3.2-1.1C55.7,171.5,56.4,168.8,55.4,166.5z"/>
	</g>
	<g class="st1">
		<path class="st10" d="M46.1,170.6c-0.5-0.9-0.7-2.1-0.5-3.3c0.2-1.1,0.9-2.2,1.8-2.9c0.9-0.7,2.1-1.1,3.2-1.1
			c1.1,0,2.3,0.4,3.1,1.2c-1-0.4-2-0.5-3-0.4s-1.9,0.5-2.7,1.1s-1.3,1.4-1.7,2.3C46,168.5,45.9,169.5,46.1,170.6z"/>
	</g>
	<path class="st6" d="M56.5,164.6c0.2-0.2,0.4,0,0.6,0.2l0.2,0.1c0.3,0.2,0.6,0.1,0.7-0.3l0.4-2.3c0.1-0.3-0.2-0.6-0.5-0.5l-2.3,0.6
		c-0.3,0.1-0.4,0.5-0.2,0.7l0.4,0.3c0.2,0.2,0.1,0.3,0,0.4c-0.5,0.5-1,1-1.5,1.5l0.5,0.5c0.1,0.1,0.3,0.2,0.4,0
		C55.6,165.5,56.2,165.1,56.5,164.6z"/>
	<path class="st6" d="M57,164.1l-2.6,2.6c-0.1,0.1-0.2,0.1-0.3,0l-0.5-0.5c-0.1-0.1-0.1-0.2,0-0.3l2.6-2.6c0.1-0.1,0.2-0.1,0.3,0
		l0.5,0.5C57.1,163.9,57.1,164,57,164.1z"/>
	<path class="st6" d="M47.6,172l-2.2,1.8c-0.1,0.1-0.2,0.1-0.3,0l0,0c-0.4-0.4-0.3-1.1,0.1-1.4l1.6-1.3c0.1-0.1,0.2-0.1,0.3,0
		l0.5,0.6C47.7,171.8,47.7,171.9,47.6,172z"/>
	<path class="st8" d="M4.7,166.6l0.8-0.5c0.2-0.1,0.5,0,0.5,0.3v0.5v0.1l-0.3,0.7h0.5v4.4c0,0.1-0.1,0.2-0.2,0.3l-1,0.4
		c-0.2,0.1-0.4,0-0.4-0.3v-5.7C4.6,166.7,4.6,166.6,4.7,166.6z"/>
	<path class="st9" d="M6.6,164.8l0.7-0.3c0.3-0.1,0.6,0.1,0.6,0.4v5.2c0,0.2-0.1,0.3-0.2,0.4L7,170.7c-0.3,0.1-0.6-0.1-0.6-0.4v-2.8
		h0.4l-0.4-0.8c0-0.1,0-0.1,0-0.2v-1.4C6.4,165,6.5,164.9,6.6,164.8z"/>
	<g class="st1">
		<path class="st11" d="M10.2,166c0.8,1,1.3,2.4,1.1,3.7c-0.1,1.4-0.9,2.7-2,3.5c-1.1,0.9-2.5,1.3-3.9,1.1c-1.4-0.1-2.6-0.9-3.4-1.9
			c1,0.8,2.2,1.1,3.4,1.1s2.3-0.4,3.2-1.1C10.6,171,11.2,168.3,10.2,166z"/>
	</g>
	<g class="st1">
		<path class="st11" d="M0.9,170.1c-0.5-0.9-0.7-2.1-0.5-3.3c0.2-1.1,0.9-2.2,1.8-2.9s2.1-1.1,3.2-1.1s2.3,0.4,3.1,1.2
			c-1-0.4-2-0.5-3-0.4s-1.9,0.5-2.7,1.1s-1.3,1.4-1.7,2.3C0.8,167.9,0.7,169,0.9,170.1z"/>
	</g>
	<path class="st9" d="M11.4,164.1c0.2-0.2,0.4,0,0.6,0.2l0.2,0.1c0.3,0.2,0.6,0.1,0.7-0.3l0.4-2.3c0.1-0.3-0.2-0.6-0.5-0.5l-2.3,0.6
		c-0.3,0.1-0.4,0.5-0.2,0.7l0.4,0.3c0.2,0.2,0.1,0.3,0,0.4c-0.5,0.5-1,1-1.5,1.5l0.5,0.5c0.1,0.1,0.3,0.2,0.4,0
		C10.4,165,11,164.6,11.4,164.1z"/>
	<path class="st9" d="M11.9,163.6l-2.6,2.6c-0.1,0.1-0.2,0.1-0.3,0l-0.5-0.5c-0.1-0.1-0.1-0.2,0-0.3l2.6-2.6c0.1-0.1,0.2-0.1,0.3,0
		l0.5,0.5C11.9,163.4,11.9,163.5,11.9,163.6z"/>
	<path class="st9" d="M2.4,171.5l-2.2,1.8c-0.1,0.1-0.2,0.1-0.3,0l0,0c-0.4-0.4-0.3-1.1,0.1-1.4l1.6-1.3c0.1-0.1,0.2-0.1,0.3,0
		l0.5,0.6C2.5,171.3,2.5,171.4,2.4,171.5z"/>
	<rect x="95.4" y="198.4" class="st6" width="1.3" height="6.7"/>
	<rect x="97.2" y="197.3" class="st6" width="1.2" height="4.8"/>
	<rect x="95.9" y="198" class="st6" width="0.2" height="7.5"/>
	<rect x="97.7" y="196.1" class="st6" width="0.2" height="7.5"/>
	<path class="st1" d="M148.6,181c1.1,0.1,1.7-0.7,1.7-3.4v-10.5c0-2.8-0.5-3.5-1.7-3.5v-0.2H162l1.1,3.9h-0.2
		c-0.8-2-3.3-3.5-5.4-3.5h-4.7v9c0.9-2,2.4-2.4,4.5-1.7c1.3,0.4,2.7,1.2,3.7-0.3l0.2,0.1c-0.9,2.6-2.5,3.2-4.7,2.4
		c-1.3-0.4-2.7-1.1-3.6,0.3v7.1h4.6c2.6,0,5.4-1.8,6.4-4.2h0.2l-1.5,4.7h-13.8V181H148.6z"/>
	<path class="st1" d="M180.1,180.8v0.2h-5.7v-0.2c1.1,0.1,1.7-0.7,1.7-3.4v-5.1c0-2.8-0.5-3.5-1.7-3.5v-0.2c1.5,0,3.3-0.7,4-1.7
		v10.5C178.4,180.1,178.9,180.9,180.1,180.8z M178.9,164.9c0,1-0.8,1.7-1.7,1.7s-1.7-0.8-1.7-1.7s0.8-1.7,1.7-1.7
		C178.1,163.2,178.9,164,178.9,164.9z"/>
	<path class="st1" d="M183.9,164.6h0.2v2.3h3.3v0.5h-3.3v10.5c0,2.6,1.6,2.6,3.1,0.8l0.2,0.2c-0.8,1.1-1.7,2.2-3.2,2.2
		c-1.8,0-2.4-1.6-2.4-3.2v-10.5h-1.7v-0.5C181.4,166.9,183.2,166,183.9,164.6z"/>
	<path class="st1" d="M200.6,172.7c-3.5,0-7.2,0-10.7,0c0,0.6,0.1,1.3,0.2,1.9c0.7,3,3.1,5.8,6.4,5.4c2.1-0.2,4.1-1.7,5-4.3h0.2
		c-0.8,3.1-3.5,5.4-6.9,5.4c-3.9,0-7.1-3.2-7.1-7.1c0-3.9,3.2-7.1,7.1-7.1C198.5,166.9,200.6,169.9,200.6,172.7z M192.6,167.7
		c-1.6,0.6-2.7,2.3-2.8,4.5h8.4C197.9,168.7,195,166.9,192.6,167.7z"/>
	<rect x="166.8" y="164.6" class="st6" width="2.5" height="14.5"/>
	<rect x="170.6" y="162.2" class="st6" width="2.5" height="10.3"/>
	<rect x="167.8" y="163.7" class="st6" width="0.5" height="16.3"/>
	<rect x="171.6" y="159.6" class="st6" width="0.5" height="16.3"/>
	
		<text transform="matrix(0.992 0 0 1 202.6943 209.0373)" style="display:inline;opacity:0.96;fill:#00A79D;enable-background:new    ; font-family:'Higuen-Regular'; font-size:25.3194px;">FX</text>
	<path class="st1" d="M148.4,208.8c1.1,0.1,1.7-0.7,1.7-3.4v-10.5c0-2.8-0.5-3.5-1.7-3.5v-0.2h13.4l1.1,3.9h-0.2
		c-0.8-2-3.3-3.5-5.4-3.5h-4.7v9c0.9-2,2.4-2.4,4.5-1.7c1.3,0.4,2.7,1.2,3.7-0.3l0.2,0.1c-0.9,2.6-2.5,3.2-4.7,2.4
		c-1.3-0.4-2.7-1.1-3.6,0.3v7.1h4.6c2.6,0,5.4-1.8,6.4-4.2h0.2l-1.5,4.7h-13.8v-0.2H148.4z"/>
	<path class="st1" d="M179.9,208.6v0.2h-5.7v-0.2c1.1,0.1,1.7-0.7,1.7-3.4v-5.1c0-2.8-0.5-3.5-1.7-3.5v-0.2c1.5,0,3.3-0.7,4-1.7
		v10.5C178.2,207.9,178.7,208.7,179.9,208.6z M178.7,192.7c0,1-0.8,1.7-1.7,1.7s-1.7-0.8-1.7-1.7s0.8-1.7,1.7-1.7
		C178,191,178.7,191.8,178.7,192.7z"/>
	<path class="st1" d="M183.7,192.4h0.2v2.3h3.3v0.5h-3.3v10.5c0,2.6,1.6,2.6,3.1,0.8l0.2,0.2c-0.8,1.1-1.7,2.2-3.2,2.2
		c-1.8,0-2.4-1.6-2.4-3.2v-10.5h-1.7v-0.5C181.2,194.7,183,193.8,183.7,192.4z"/>
	<path class="st1" d="M200.4,200.5c-3.5,0-7.2,0-10.7,0c0,0.6,0.1,1.3,0.2,1.9c0.7,3,3.1,5.8,6.4,5.4c2.1-0.2,4.1-1.7,5-4.3h0.2
		c-0.8,3.1-3.5,5.4-6.9,5.4c-3.9,0-7.1-3.2-7.1-7.1c0-3.9,3.2-7.1,7.1-7.1C198.3,194.7,200.4,197.7,200.4,200.5z M192.5,195.6
		c-1.6,0.6-2.7,2.3-2.8,4.5h8.4C197.7,196.5,194.8,194.7,192.5,195.6z"/>
	<rect x="166.6" y="192.4" class="st6" width="2.5" height="14.5"/>
	<rect x="170.4" y="190" class="st6" width="2.5" height="10.3"/>
	<rect x="167.6" y="191.5" class="st6" width="0.5" height="16.3"/>
	<rect x="171.4" y="187.4" class="st6" width="0.5" height="16.3"/>
	<path class="st1" d="M89.1,221.6c0.5,0,0.8-0.3,0.8-1.6v-4.8c0-1.3-0.3-1.6-0.8-1.6v-0.1h6.2l0.5,1.8h-0.1
		c-0.4-0.9-1.5-1.6-2.5-1.6H91v4.2c0.4-0.9,1.1-1.1,2.1-0.8c0.6,0.2,1.2,0.5,1.7-0.2h0.1c-0.4,1.2-1.1,1.5-2.2,1.1
		c-0.6-0.2-1.2-0.5-1.7,0.1v3.3h2.1c1.2,0,2.5-0.8,2.9-1.9h0.1l-0.7,2.2L89.1,221.6L89.1,221.6L89.1,221.6z"/>
	<path class="st1" d="M103.6,221.5v0.1H101v-0.1c0.5,0,0.8-0.3,0.8-1.6v-2.3c0-1.3-0.3-1.6-0.8-1.6v-0.1c0.7,0,1.5-0.3,1.8-0.8v4.8
		C102.8,221.2,103.1,221.6,103.6,221.5z M103.1,214.2c0,0.4-0.4,0.8-0.8,0.8s-0.8-0.3-0.8-0.8c0-0.4,0.4-0.8,0.8-0.8
		S103.1,213.8,103.1,214.2z"/>
	<path class="st1" d="M105.4,214.1L105.4,214.1l0.1,1h1.5v0.2h-1.5v4.8c0,1.2,0.7,1.2,1.4,0.4l0.1,0.1c-0.4,0.5-0.8,1-1.5,1
		c-0.8,0-1.1-0.8-1.1-1.5v-4.8h-0.8v-0.2C104.2,215.1,105,214.7,105.4,214.1z"/>
	<path class="st1" d="M113.1,217.8c-1.6,0-3.3,0-4.9,0c0,0.3,0,0.6,0.1,0.9c0.3,1.4,1.4,2.7,3,2.5c1-0.1,1.9-0.8,2.3-2h0.1
		c-0.4,1.4-1.6,2.5-3.2,2.5c-1.8,0-3.2-1.5-3.2-3.2c0-1.8,1.5-3.3,3.2-3.3C112.1,215.1,113.1,216.5,113.1,217.8z M109.4,215.5
		c-0.8,0.3-1.2,1.1-1.3,2.1h3.9C111.8,215.9,110.5,215.1,109.4,215.5z"/>
	<rect x="97.5" y="214.1" class="st6" width="1.1" height="6.7"/>
	<rect x="99.3" y="213" class="st6" width="1" height="4.8"/>
	<rect x="98" y="213.7" class="st6" width="0.2" height="7.5"/>
	<rect x="99.7" y="211.8" class="st6" width="0.2" height="7.5"/>
	<polygon class="st6" points="160.5,75 160.5,94.6 168.7,89.9 168.7,79.8 166.9,78.6 166.9,86.1 165.6,86.7 165.7,77.9 163.6,76.7 
		163.6,87.8 162.5,88.4 162.4,76.2 	"/>
	<polygon class="st6" points="217.7,92.8 219.7,91.8 219.7,79.8 217.7,78.7 	"/>
	<polygon class="st6" points="218.7,94.3 219.1,93.1 219.1,78.7 218.7,77.4 	"/>
	<polygon class="st6" points="221.7,93.4 222.1,92.4 222.1,80.4 221.7,79.2 	"/>
	<polygon class="st6" points="224.9,92.5 225.3,91.8 225.3,82.2 224.9,81.3 	"/>
	<polygon class="st6" points="220.9,91.7 222.9,90.8 222.9,82 220.8,80.7 	"/>
	<polygon class="st6" points="224,90.4 225.8,89.8 225.8,83.8 224,83 	"/>
	<path class="st6" d="M218.3,88.4"/>
	<polygon class="st6" points="154.2,90.9 154.2,83.5 155.5,82.8 155.5,90.9 	"/>
	<polygon class="st6" points="157.4,92.7 157.4,81.7 158.6,81.2 158.6,92.7 	"/>
	<polygon class="st6" points="211.2,91.1 211.2,83.6 212.5,83 212.5,91.1 	"/>
	<polygon class="st6" points="214.5,92.8 214.5,81.9 215.6,81.3 215.6,92.8 	"/>
	<polygon class="st6" points="214.9,94.5 214.9,81.2 215.3,80.5 215.3,94.5 	"/>
	<polygon class="st6" points="211.6,92.8 211.6,82.4 212.1,81.9 212.1,92.8 	"/>
	<text transform="matrix(1 0 0 1 16.3222 -60.5256)" class="st1" style="font-family:'Higuen-Regular'; font-size:25.3937px;">Ellite </text>
	<text transform="matrix(1 0 0 1 72.3066 -60.5236)" class="st6" style="font-family:'AppleGaramondLight'; font-size:26.3741px;">FX</text>
	<polygon class="st12" points="76.2,-89.7 59,-82.2 41.3,-89.7 59.1,-96.3 	"/>
	<polygon class="st13" points="75.7,-93 58.5,-85.4 40.9,-93 58.7,-99.6 	"/>
	<polygon class="st14" points="75.5,-96.8 58.3,-89.3 40.6,-96.8 58.4,-103.4 	"/>
	<polygon class="st6" points="49.8,-96.2 54.2,-98.3 54.1,-123.7 49.9,-126.1 	"/>
	<polygon class="st6" points="52,-93.1 52.9,-95.6 52.9,-126.1 52,-129 	"/>
	<polygon class="st6" points="58.3,-95 59.2,-97.1 59.2,-122.6 58.3,-125 	"/>
	<polygon class="st6" points="65.1,-96.8 66,-98.4 66,-118.6 65.1,-120.5 	"/>
	<polygon class="st6" points="56.6,-98.7 60.9,-100.7 61,-119.4 56.5,-121.9 	"/>
	<polygon class="st6" points="63.2,-101.4 67,-102.7 67,-115.3 63.2,-117 	"/>
	<path class="st6" d="M51.2-105.6"/>
	<polygon class="st6" points="161.1,125.9 163.6,124.2 163.9,131.7 161.2,130.4 	"/>
	<polygon class="st6" points="161.2,121.6 163.8,120.1 167.3,122.1 167.3,126.2 164.7,127.7 164.5,123.9 	"/>
	<polygon class="st6" points="209.7,114.1 209.7,119.2 214.7,124.1 219.7,124.1 219.7,119.1 214.7,114.1 	"/>
	<polygon class="st6" points="219.7,124.3 219.7,129.3 224.8,134.3 229.8,134.3 229.8,129.3 224.8,124.3 	"/>
	<polygon class="st6" points="209.7,123.8 209.7,129.1 214.7,134.3 219.7,134.3 219.7,129.1 214.7,123.8 	"/>
	<polygon class="st6" points="219.7,114.1 219.7,119.2 224.8,124.1 229.8,124.1 229.8,119.1 224.8,114.1 	"/>
</g>
<g id="Layer_2_1_">
	<path d="M12.1,77.5c1.1,0.1,1.6-0.7,1.6-3.4V63.9c0-2.7-0.5-3.4-1.6-3.4v-0.2h13.1l1.1,3.8H26c-0.8-2-3.2-3.4-5.3-3.4h-4.6v8.8
		c0.9-1.9,2.3-2.3,4.4-1.6c1.2,0.4,2.6,1.1,3.6-0.3l0.2,0.1c-0.9,2.5-2.4,3.1-4.6,2.3c-1.2-0.4-2.6-1.1-3.6,0.3v6.9h4.5
		c2.5,0,5.3-1.8,6.2-4.1H27l-1.4,4.6H12.1V77.5z"/>
	<path d="M33,77.5v0.2h-5.5v-0.2c1.1,0.1,1.6-0.7,1.6-3.4V63.9c0-2.7-0.5-3.4-1.6-3.4v-0.2c1.5,0,3.2-0.7,3.9-1.7v15.5
		C31.3,76.8,31.9,77.5,33,77.5z"/>
	<path d="M39.1,77.5v0.2h-5.5v-0.2c1.1,0.1,1.6-0.7,1.6-3.4V63.9c0-2.7-0.5-3.4-1.6-3.4v-0.2c1.5,0,3.2-0.7,3.9-1.7v15.5
		C37.5,76.8,38,77.5,39.1,77.5z"/>
	<path d="M45.3,77.5v0.2h-5.5v-0.2c1.1,0.1,1.6-0.7,1.6-3.4v-4.9c0-2.7-0.5-3.4-1.6-3.4v-0.2c1.5,0,3.2-0.7,3.9-1.7v10.2
		C43.7,76.8,44.2,77.5,45.3,77.5z M44.2,62c0,0.9-0.8,1.7-1.7,1.7S40.8,63,40.8,62c0-0.9,0.8-1.7,1.7-1.7S44.2,61.1,44.2,62z"/>
	<path d="M49,61.7h0.2v2.2h3.2v0.5h-3.2v10.2c0,2.5,1.5,2.5,3,0.8l0.2,0.2c-0.8,1.1-1.7,2.2-3.1,2.2c-1.8,0-2.4-1.6-2.4-3.1V64.4
		h-1.6v-0.5C46.6,63.9,48.3,63,49,61.7z"/>
	<path d="M65.3,69.5c-3.5,0-7,0-10.5,0c0,0.6,0.1,1.2,0.2,1.9c0.7,2.9,3,5.6,6.3,5.3c2-0.2,4-1.7,4.8-4.2h0.2
		c-0.8,3-3.5,5.2-6.7,5.2c-3.8,0-6.9-3.1-6.9-6.9s3.1-6.9,6.9-6.9C63.2,63.9,65.3,66.8,65.3,69.5z M57.6,64.7
		C56,65.3,55,67,54.9,69.1H63C62.7,65.6,59.8,63.9,57.6,64.7z"/>
	<path class="st10" d="M77.6,61.1c0.3,0,0.5,0,0.6,0s0.3,0.1,0.3,0.1s0.1,0.1,0.1,0.3s0,0.3,0,0.5v2.4c0,0.4-0.1,0.6-0.3,0.6
		c-0.1,0-0.2,0-0.2-0.1c-0.1-0.1-0.1-0.2-0.2-0.4s-0.1-0.3-0.2-0.6c-0.1-0.2-0.2-0.4-0.4-0.7c-0.4-0.5-0.7-0.8-1.2-1s-1-0.3-1.6-0.3
		c-0.5,0-0.8,0-1.1,0.1s-0.5,0.2-0.7,0.3s-0.3,0.3-0.3,0.6c-0.1,0.2-0.1,0.5-0.1,0.8v4.1c0,0.2,0,0.4,0.1,0.4c0,0.1,0.2,0.1,0.4,0.1
		h1.4c0.5,0,0.9-0.1,1.3-0.2s0.6-0.2,0.7-0.4c0.2-0.2,0.3-0.4,0.4-0.6s0.1-0.4,0.2-0.5c0-0.1,0.1-0.3,0.1-0.4s0.1-0.1,0.2-0.1
		c0.2,0,0.3,0.2,0.3,0.5c0,0.1,0,0.4-0.1,0.8s-0.1,0.9-0.1,1.6c0,0.8,0,1.4,0,1.8s0,0.7,0,0.7c0,0.3-0.1,0.5-0.3,0.5
		c-0.1,0-0.2-0.1-0.2-0.2s-0.1-0.2-0.1-0.4s-0.1-0.4-0.1-0.7c-0.1-0.3-0.2-0.5-0.4-0.8c-0.3-0.6-1-0.9-2-0.9h-1.5
		c-0.2,0-0.3,0-0.3,0.1s-0.1,0.2-0.1,0.4v5.7c0,0.3,0,0.5,0,0.7s0.1,0.3,0.1,0.4c0.1,0.1,0.2,0.2,0.3,0.2c0.1,0.1,0.3,0.1,0.6,0.2
		c0.2,0,0.3,0.1,0.4,0.1c0.2,0,0.3,0,0.4,0s0.2,0.1,0.3,0.1c0.1,0.1,0.1,0.1,0.1,0.3c0,0.3-0.2,0.4-0.7,0.4c-0.3,0-0.6,0-1-0.1
		c-0.4,0-0.9-0.1-1.5-0.1s-1,0-1.4,0.1c-0.4,0-0.6,0.1-0.8,0.1c-0.4,0-0.6-0.1-0.6-0.4c0-0.1,0-0.2,0.1-0.3c0.1-0.1,0.1-0.1,0.2-0.1
		s0.2,0,0.3,0s0.2,0,0.4-0.1c0.4-0.1,0.6-0.3,0.7-0.5s0.1-0.6,0.1-1.1v-12c0-0.4,0-0.7-0.1-0.8s0.2-0.3-0.1-0.4
		c-0.2-0.1-0.3-0.1-0.5-0.1c-0.1,0-0.3,0-0.4,0s-0.2,0-0.3-0.1c-0.1,0-0.1-0.1-0.1-0.3s0.2-0.4,0.5-0.4h2.7L77.6,61.1L77.6,61.1z"/>
	<path class="st10" d="M85.8,67.3c0.1,0.2,0.1,0.2,0.2,0.2s0.2-0.1,0.3-0.2l1.8-3.2c0.2-0.4,0.3-0.7,0.4-1s0.1-0.5,0.1-0.7
		S88.5,62,88.4,62s-0.3-0.1-0.4-0.1s-0.3-0.1-0.4-0.1s-0.2-0.2-0.2-0.3c0-0.2,0.1-0.3,0.4-0.3c0.1,0,0.3,0,0.6,0.1s0.9,0.1,1.6,0.1
		c0.5,0,0.9,0,1.3-0.1s0.6-0.1,0.8-0.1c0.3,0,0.4,0.1,0.4,0.3c0,0.1,0,0.2-0.1,0.3s-0.2,0.1-0.3,0.1S91.8,62,91.6,62
		s-0.4,0.1-0.6,0.1c-0.3,0.1-0.6,0.3-0.9,0.6s-0.6,0.7-0.9,1.2l-2.5,4.4c-0.1,0.1-0.1,0.2-0.1,0.3c0,0.1,0,0.2,0.1,0.3l3.3,5.9
		c0.3,0.5,0.5,0.9,0.8,1.2c0.2,0.4,0.5,0.6,0.8,0.8c0.1,0.1,0.3,0.2,0.4,0.2s0.3,0.1,0.4,0.1s0.2,0.1,0.3,0.1c0.1,0,0.1,0.1,0.1,0.2
		s0,0.2-0.1,0.3s-0.2,0.1-0.4,0.1c-0.5,0-1,0-1.5-0.1s-0.9-0.1-1.4-0.1c-0.4,0-0.7,0-1,0.1s-0.5,0.1-0.6,0.1h-0.2
		c-0.3,0-0.4-0.1-0.4-0.3c0-0.2,0.1-0.3,0.3-0.4c0.2,0,0.4-0.1,0.6-0.1s0.4-0.1,0.6-0.1s0.3-0.2,0.3-0.5c0-0.1,0-0.3-0.1-0.5
		s-0.2-0.4-0.3-0.6L86,70.9c-0.1-0.1-0.2-0.2-0.3-0.2c-0.1,0-0.2,0.1-0.2,0.2L83.3,75c-0.2,0.4-0.3,0.7-0.4,1s-0.1,0.5-0.1,0.6
		c0,0.2,0.1,0.4,0.2,0.4s0.3,0.1,0.5,0.1s0.4,0.1,0.5,0.1s0.2,0.2,0.2,0.3c0,0.2-0.2,0.3-0.5,0.3c-0.2,0-0.5,0-0.8-0.1
		c-0.4-0.1-0.8-0.1-1.2-0.1c-0.6,0-1,0-1.4,0.1c-0.4,0-0.6,0.1-0.8,0.1c-0.3,0-0.4-0.1-0.4-0.3c0-0.1,0-0.2,0.1-0.3
		c0.1-0.1,0.2-0.1,0.3-0.1c0.1,0,0.3,0,0.4-0.1c0.2,0,0.3-0.1,0.5-0.1c0.3-0.1,0.6-0.3,0.9-0.6c0.2-0.3,0.5-0.7,0.8-1.2l3-5.1
		c0-0.1,0.1-0.1,0.1-0.2s0-0.1,0-0.2s0-0.2-0.1-0.4L82,64.1c-0.3-0.6-0.6-1-0.9-1.4s-0.5-0.6-0.7-0.8c-0.1-0.1-0.3-0.1-0.4-0.2
		s-0.3,0-0.4-0.1c-0.1,0-0.2,0-0.3-0.1s-0.1-0.1-0.1-0.2c0-0.1,0.1-0.2,0.2-0.3s0.2-0.1,0.4-0.1c0.4,0,0.8,0,1.3,0.1s1,0.1,1.6,0.1
		c0.5,0,0.8,0,1.1-0.1c0.3-0.1,0.5-0.1,0.6-0.1c0.3,0,0.4,0.1,0.4,0.3s-0.1,0.3-0.2,0.4s-0.3,0.1-0.5,0.1s-0.4,0.1-0.5,0.1
		c-0.2,0.1-0.3,0.2-0.3,0.4s0.1,0.6,0.4,1.2L85.8,67.3z"/>
	<polygon class="st15" points="72,48.5 54.8,56 37.1,48.5 54.9,41.9 	"/>
	<polygon class="st16" points="71.5,45.2 54.3,52.8 36.7,45.2 54.5,38.6 	"/>
	<polygon class="st17" points="71.3,41.4 54.1,49 36.4,41.4 54.2,34.8 	"/>
	<polygon class="st10" points="45.7,42 50,39.9 49.9,14.5 45.7,12.1 	"/>
	<polygon class="st10" points="47.8,45.1 48.7,42.7 48.7,12.1 47.8,9.3 	"/>
	<polygon class="st10" points="54.1,43.2 55,41.1 55,15.6 54.1,13.2 	"/>
	<polygon class="st10" points="60.9,41.4 61.8,39.8 61.8,19.6 60.9,17.7 	"/>
	<polygon class="st10" points="52.4,39.5 56.7,37.5 56.8,18.8 52.3,16.3 	"/>
	<polygon class="st10" points="59,36.8 62.8,35.5 62.8,22.9 59,21.2 	"/>
	<path class="st10" d="M47,32.6"/>
</g>
</svg>
