<?xml version="1.0" encoding="UTF-8"?>
<svg id="Layer_2" data-name="Layer 2" xmlns="http://www.w3.org/2000/svg" viewBox="0 0 159.5 181.43">
  <defs>
    <style>
      .cls-1 {
        fill: #f3c549;
      }

      .cls-1, .cls-2, .cls-3, .cls-4, .cls-5, .cls-6, .cls-7, .cls-8, .cls-9, .cls-10, .cls-11, .cls-12, .cls-13, .cls-14 {
        stroke-width: 0px;
      }

      .cls-2 {
        fill: #f7e059;
      }

      .cls-3 {
        fill: #f1b946;
      }

      .cls-4 {
        fill: #f3c448;
      }

      .cls-5 {
        fill: #f7d14e;
      }

      .cls-6 {
        fill: #f6cc4b;
      }

      .cls-7 {
        fill: #f7d34e;
      }

      .cls-8 {
        fill: #f6cc4c;
      }

      .cls-9 {
        fill: #f7d64f;
      }

      .cls-10 {
        fill: #f6e958;
      }

      .cls-11 {
        fill: #f7dc51;
      }

      .cls-12 {
        fill: #f6e353;
      }

      .cls-13 {
        fill: #f7da4f;
      }

      .cls-14 {
        fill: #e43928;
      }
    </style>
  </defs>
  <g id="Layer_1-2" data-name="Layer 1">
    <g>
      <path class="cls-14" d="m24.04,126.48V44.47c10,.65,19.93.56,29.6,2.13,8.25,1.34,15.02,5.64,17.35,14.91,2.26,9-1.51,15.36-7.87,20.93,11.95,7.98,15.24,15.28,12.63,27.92-2.13,10.31-12.29,17.45-22.02,15.46-6.39-1.31-10.58-5.86-12.71-14.16,4.03,0,7.96.13,11.87-.03,5.8-.23,8.77-3.34,8.97-9.09.22-6.14-2.93-10.31-8.57-10.69-4.57-.31-9.17-.06-14.36-.06.77,14.09,1.74,28.11-14.89,34.7Zm15.04-48.45c3.27,0,6.24.04,9.2,0,5.14-.08,8.91-3.59,9.18-8.47.26-4.78-3.67-9.85-8.3-10.25-3.26-.28-6.56-.05-10.08-.05v18.78Z"/>
      <path class="cls-3" d="m20.88,16.36c-1.73-.91-3.46-1.83-5.65-2.98v148.1c1.72-.82,3.15-1.51,4.59-2.19.39,5.77.77,11.54,1.16,17.32-1.1.71-2.17,1.48-3.31,2.11-10.32,5.68-16.4,2.46-17.57-9.28-.13-1.31-.09-2.65-.09-3.97,0-49.66,0-99.32,0-148.99,0-1.49-.08-3,.13-4.46C1.8.53,12.13-3.36,21.97,3.14c-.36,4.41-.73,8.81-1.09,13.22Z"/>
      <path class="cls-10" d="m111.59,54.89c15.61,8.91,31.22,17.83,47.92,27.36-4.52,2.43-8,4.47-11.64,6.15-.95.44-2.62.11-3.62-.46-11.29-6.54-22.51-13.2-33.75-19.82.36-4.41.73-8.82,1.09-13.23Z"/>
      <path class="cls-4" d="m20.98,176.6c-.39-5.77-.77-11.54-1.16-17.32,6.63-4.09,13.26-8.17,19.89-12.26.4,5.9.81,11.79,1.21,17.69-6.65,3.96-13.29,7.93-19.94,11.89Z"/>
      <path class="cls-8" d="m40.92,164.71c-.4-5.9-.81-11.79-1.21-17.69,6.02-3.71,12.04-7.42,18.06-11.13.35,5.94.71,11.89,1.06,17.83-5.97,3.66-11.94,7.32-17.91,10.98Z"/>
      <path class="cls-7" d="m58.83,153.73c-.35-5.94-.71-11.89-1.06-17.83,5.64-3.3,11.28-6.6,16.92-9.9,0,3.77-.18,7.55.08,11.3.14,1.94,1.06,3.82,1.62,5.73-5.86,3.57-11.71,7.13-17.57,10.7Z"/>
      <path class="cls-1" d="m20.88,16.36c.36-4.41.73-8.81,1.09-13.22,6.61,3.72,13.23,7.44,19.84,11.16-.32,2.68-.44,5.42-1.05,8.03-.33,1.42-1.49,2.65-2.28,3.97-5.87-3.31-11.73-6.63-17.6-9.94Z"/>
      <path class="cls-12" d="m111.59,54.89c-.36,4.41-.73,8.82-1.09,13.23-6.3-3.66-12.61-7.32-18.91-10.98.36-4.41.73-8.83,1.09-13.24,6.3,3.66,12.61,7.33,18.91,10.99Z"/>
      <path class="cls-13" d="m76.4,143.03c-.57-1.91-1.49-3.79-1.62-5.73-.26-3.75-.08-7.53-.08-11.3,4.98-.04,9.96-.09,14.93-.13,0,2.9,0,5.8,0,8.7-4.41,2.82-8.82,5.64-13.23,8.45Z"/>
      <path class="cls-6" d="m38.48,26.3c.79-1.32,1.95-2.54,2.28-3.97.61-2.62.73-5.35,1.05-8.03,4.88,2.82,9.76,5.65,14.63,8.47-.55,1.77-1.24,3.51-1.62,5.32-.5,2.33-.75,4.72-1.11,7.08-5.07-2.96-10.15-5.91-15.22-8.87Z"/>
      <path class="cls-9" d="m66.82,28.85c4.64,2.7,9.27,5.4,13.91,8.1-.37,4.41-.74,8.83-1.11,13.24-4.63-2.69-9.27-5.37-13.9-8.06.37-4.43.74-8.86,1.11-13.29Z"/>
      <path class="cls-11" d="m79.62,50.2c.37-4.41.74-8.83,1.11-13.24,3.98,2.32,7.96,4.63,11.94,6.95-.36,4.41-.73,8.83-1.09,13.24-3.99-2.31-7.98-4.63-11.97-6.94Z"/>
      <path class="cls-5" d="m66.82,28.85c-.37,4.43-.74,8.86-1.11,13.29-4-2.33-8.01-4.65-12.01-6.98.36-2.36.62-4.74,1.11-7.08.38-1.81,1.07-3.55,1.62-5.32,3.46,2.03,6.92,4.06,10.38,6.08Z"/>
      <path class="cls-2" d="m89.64,134.57c0-2.9,0-5.8,0-8.7,1.65-.06,3.3-.16,4.95-.17,3.3-.03,6.6,0,10.35.9-5.1,2.66-10.19,5.32-15.29,7.98Z"/>
    </g>
  </g>
</svg>