<svg width="144" height="22" viewBox="0 0 144 22" fill="none" xmlns="http://www.w3.org/2000/svg">
<path d="M92.0057 0.0238466C91.8922 0.00715397 91.778 0 91.6638 0H85.5678V13.8843H91.647C91.7719 13.8843 91.8968 13.8747 92.0202 13.8556C100.054 12.5735 99.7825 1.15894 92.0057 0.0246414V0.0238466ZM92.3256 10.9813C92.04 11.0815 91.7399 11.1316 91.4391 11.1316H88.8351C88.8351 11.1316 90.8861 10.4655 91.3842 10.3009C91.8831 10.1364 91.826 9.66183 91.826 9.66183V4.13022C91.826 3.75583 91.3842 3.69224 91.3842 3.69224L88.8351 2.83456H91.5434C91.7772 2.83456 92.0103 2.86397 92.2365 2.92518C96.0323 3.95137 96.4718 9.52193 92.3256 10.9821V10.9813ZM90.9029 7.12773C90.9029 6.91152 91.0126 6.73586 91.1481 6.73586C91.2837 6.73586 91.3934 6.91152 91.3934 7.12773C91.3934 7.34394 91.2837 7.51882 91.1481 7.51882C91.0126 7.51882 90.9029 7.34315 90.9029 7.12773Z" fill="#007BE2"/>
<path d="M107.092 13.9733C106.073 13.9733 105.135 13.8008 104.277 13.455C103.418 13.1092 102.669 12.6228 102.032 11.9948C101.393 11.3676 100.9 10.6308 100.55 9.78582C100.201 8.94086 100.025 8.0188 100.025 7.01962C100.025 6.02045 100.201 5.08249 100.55 4.24389C100.9 3.40528 101.393 2.6724 102.032 2.04444C102.67 1.41728 103.415 0.930011 104.268 0.584236C105.121 0.238461 106.056 0.0659714 107.074 0.0659714C108.092 0.0659714 109.028 0.236077 109.881 0.574698C110.734 0.914114 111.479 1.3974 112.117 2.02536C112.755 2.65332 113.249 3.38939 113.598 4.23435C113.948 5.07931 114.123 6.00853 114.123 7.01962C114.123 8.03072 113.948 8.94404 113.598 9.79536C113.249 10.6475 112.754 11.3867 112.117 12.0139C111.479 12.6418 110.733 13.1251 109.881 13.4646C109.028 13.804 108.099 13.9733 107.092 13.9733ZM107.074 11.3414C107.651 11.3414 108.182 11.2357 108.666 11.0243C109.15 10.8128 109.577 10.5123 109.945 10.1213C110.313 9.73098 110.598 9.2763 110.801 8.75724C111.003 8.23818 111.105 7.65951 111.105 7.01883C111.105 6.37815 111.003 5.79868 110.801 5.28042C110.598 4.76215 110.313 4.30748 109.945 3.91639C109.577 3.52611 109.15 3.22484 108.666 3.0134C108.181 2.80197 107.651 2.69625 107.074 2.69625C106.498 2.69625 105.964 2.80197 105.473 3.0134C104.982 3.22484 104.556 3.52611 104.194 3.91639C103.832 4.30748 103.549 4.76136 103.347 5.28042C103.144 5.79948 103.043 6.37895 103.043 7.01883C103.043 7.65871 103.144 8.23898 103.347 8.75724C103.549 9.27551 103.831 9.73098 104.194 10.1213C104.556 10.5123 104.982 10.8128 105.473 11.0243C105.964 11.2357 106.498 11.3414 107.074 11.3414Z" fill="#007BE2"/>
<path d="M122.626 13.9733C121.607 13.9733 120.669 13.8008 119.811 13.455C118.951 13.1092 118.203 12.6228 117.565 11.9948C116.927 11.3676 116.434 10.6308 116.084 9.78582C115.734 8.94086 115.559 8.0188 115.559 7.01962C115.559 6.02045 115.734 5.08249 116.084 4.24389C116.434 3.40528 116.927 2.6724 117.565 2.04444C118.204 1.41728 118.948 0.930011 119.801 0.584236C120.654 0.238461 121.59 0.0659714 122.608 0.0659714C123.626 0.0659714 124.562 0.236077 125.415 0.574698C126.268 0.914114 127.012 1.3974 127.651 2.02536C128.289 2.65332 128.782 3.38939 129.132 4.23435C129.482 5.07931 129.657 6.00853 129.657 7.01962C129.657 8.03072 129.482 8.94404 129.132 9.79536C128.782 10.6475 128.288 11.3867 127.651 12.0139C127.012 12.6418 126.267 13.1251 125.415 13.4646C124.562 13.804 123.632 13.9733 122.626 13.9733ZM122.608 11.3414C123.185 11.3414 123.715 11.2357 124.2 11.0243C124.684 10.8128 125.111 10.5123 125.478 10.1213C125.846 9.73098 126.132 9.2763 126.335 8.75724C126.537 8.23818 126.638 7.65951 126.638 7.01883C126.638 6.37815 126.537 5.79868 126.335 5.28042C126.132 4.76215 125.847 4.30748 125.478 3.91639C125.111 3.52611 124.684 3.22484 124.2 3.0134C123.715 2.80197 123.185 2.69625 122.608 2.69625C122.031 2.69625 121.498 2.80197 121.007 3.0134C120.516 3.22484 120.089 3.52611 119.728 3.91639C119.366 4.30748 119.083 4.76136 118.881 5.28042C118.678 5.79948 118.577 6.37895 118.577 7.01883C118.577 7.65871 118.678 8.23898 118.881 8.75724C119.083 9.27551 119.365 9.73098 119.728 10.1213C120.089 10.5123 120.516 10.8128 121.007 11.0243C121.498 11.2357 122.031 11.3414 122.608 11.3414Z" fill="#007BE2"/>
<path d="M140.443 9.41859C140.45 9.4162 140.456 9.41302 140.462 9.41064C141.296 9.03307 141.94 8.48221 142.394 7.75887C142.848 7.03552 143.075 6.16751 143.075 5.15562C143.075 3.64534 142.578 2.45698 141.584 1.59294C140.59 0.72811 139.197 0.295692 137.406 0.295692H131.903V13.7428H134.903V9.97739H137.48C137.524 9.97739 137.568 9.97739 137.611 9.9758L140.112 13.7428H143.314L140.443 9.41859ZM139.376 6.88449C138.909 7.29465 138.222 7.49973 137.314 7.49973H134.903V2.83138H137.314C138.222 2.83138 138.909 3.03328 139.376 3.43708C139.842 3.84008 140.075 4.4132 140.075 5.15562C140.075 5.89804 139.842 6.47513 139.376 6.88449Z" fill="#007BE2"/>
<path d="M21.7821 9.4186C21.7882 9.41621 21.7943 9.41303 21.8004 9.41065C22.6343 9.03308 23.2786 8.48222 23.7326 7.75888C24.1865 7.03553 24.4134 6.16752 24.4134 5.15563C24.4134 3.64535 23.9169 2.45699 22.923 1.59295C21.9291 0.728118 20.5361 0.2957 18.7448 0.2957H13.2414V13.7428H16.2414V9.9774H18.8186C18.8628 9.9774 18.9062 9.9774 18.9496 9.97581L21.45 13.7428H24.6526L21.7821 9.4186ZM20.7143 6.8845C20.2474 7.29466 19.5605 7.49974 18.6526 7.49974H16.2414V2.83138H18.6526C19.5605 2.83138 20.2474 3.03328 20.7143 3.43709C21.1804 3.84009 21.4135 4.4132 21.4135 5.15563C21.4135 5.89805 21.1804 6.47514 20.7143 6.8845Z" fill="white"/>
<path d="M33.763 0.2957H30.8186L25.0943 13.7428H28.1499L29.2984 10.8613H35.2657L36.4134 13.7428H39.5429L33.763 0.2957ZM30.2398 8.49812L32.2817 3.3727L34.3243 8.49812H30.2398Z" fill="white"/>
<path d="M52.702 0.2957V13.7428H50.2359L43.8307 5.58487V13.7428H40.8864V0.2957H43.3524L49.7576 8.4536V0.2957H52.702Z" fill="white"/>
<path d="M55.7576 13.7428V0.2957H61.6106C63.0096 0.2957 64.2427 0.57391 65.3097 1.13112C66.3775 1.68834 67.2114 2.46971 67.8131 3.47445C68.414 4.47997 68.7149 5.66117 68.7149 7.01884C68.7149 8.3765 68.414 9.5577 67.8131 10.5632C67.2114 11.5688 66.3775 12.3493 65.3097 12.9066C64.2419 13.4638 63.0089 13.742 61.6106 13.742H55.7576V13.7428ZM58.7576 11.2071H61.4628C62.3219 11.2071 63.0668 11.0378 63.6989 10.6984C64.331 10.3589 64.8215 9.87247 65.1711 9.23816C65.5207 8.60463 65.6958 7.86459 65.6958 7.01963C65.6958 6.17467 65.5207 5.41873 65.1711 4.79157C64.8215 4.16441 64.3303 3.68112 63.6989 3.3409C63.0668 3.00149 62.3211 2.83218 61.4628 2.83218H58.7576V11.2071Z" fill="white"/>
<path d="M75.2114 13.9733C74.1809 13.9733 73.1901 13.8294 72.2388 13.5409C71.2876 13.2531 70.5237 12.8779 69.9471 12.4169L70.9593 10.0736C71.4993 10.4837 72.149 10.82 72.9106 11.0823C73.6714 11.3446 74.4384 11.4758 75.2114 11.4758C75.8001 11.4758 76.2754 11.4122 76.6379 11.2834C76.9997 11.1554 77.2662 10.9853 77.4384 10.7747C77.6097 10.5632 77.6958 10.3168 77.6958 10.0354C77.6958 9.67693 77.5602 9.39157 77.2906 9.18092C77.021 8.96949 76.6615 8.797 76.2137 8.66266C75.7659 8.52832 75.2777 8.40035 74.7506 8.27873C74.2228 8.15711 73.692 8.01006 73.1589 7.83677C72.625 7.66349 72.1337 7.43297 71.6867 7.14522C71.2388 6.85748 70.8832 6.47911 70.6189 6.01172C70.3546 5.54433 70.2229 4.95849 70.2229 4.25423C70.2229 3.48557 70.4193 2.78448 70.8116 2.15096C71.2038 1.51744 71.8024 1.0111 72.6059 0.633525C73.4094 0.255955 74.4186 0.0667725 75.6333 0.0667725C76.4429 0.0667725 77.2434 0.169313 78.0355 0.374393C78.8268 0.579473 79.5168 0.873581 80.1063 1.25831L79.168 3.60163C78.5914 3.25585 77.9959 2.99672 77.3828 2.82343C76.7689 2.65094 76.1802 2.5643 75.6158 2.5643C75.0515 2.5643 74.5541 2.63187 74.1985 2.7662C73.842 2.90054 73.5816 3.08336 73.4163 3.31388C73.251 3.54439 73.168 3.80035 73.168 4.08253C73.168 4.44102 73.3028 4.72957 73.5732 4.94737C73.8428 5.16516 74.1992 5.33448 74.641 5.45609C75.0827 5.57771 75.5732 5.69933 76.1132 5.82095C76.6531 5.94256 77.187 6.0928 77.7141 6.27244C78.2419 6.45208 78.7262 6.67942 79.168 6.95445C79.6097 7.23028 79.9684 7.60149 80.2449 8.06888C80.5206 8.53627 80.6592 9.11574 80.6592 9.80729C80.6592 10.5632 80.4597 11.2548 80.0613 11.8819C79.6623 12.5099 79.0583 13.0155 78.2487 13.3994C77.4391 13.7833 76.4269 13.9757 75.2122 13.9757L75.2114 13.9733Z" fill="white"/>
<path d="M9.46617 6.5651L9.43418 6.53887L9.46083 6.50707C9.86982 6.03093 10.1524 5.49041 10.3017 4.9014C10.4844 4.17726 10.4555 3.41417 10.2164 2.6948C9.97264 1.96033 9.53166 1.32522 8.93989 0.857028C8.31004 0.358635 7.54081 0.0804256 6.71599 0.0526047H6.70837H0.0381775V7.56427L2.05797 5.82903L2.1486 2.31723H6.58575C6.68552 2.31723 6.7792 2.32439 6.86526 2.33869C7.6939 2.47621 8.10593 3.08032 8.21484 3.60018C8.32832 4.14229 8.16152 4.68678 7.75635 5.09456L7.73198 5.1192L5.68324 3.34343L0.0381775 8.24787V13.9082H2.16003V9.27406L2.17297 9.26214L5.59794 6.17799L6.02825 6.5794L2.63146 9.51412V13.9074H7.36716C7.89953 13.9074 8.41362 13.8152 8.89572 13.634C9.5865 13.3741 10.1486 12.9655 10.5667 12.4194C10.962 11.9035 11.2087 11.278 11.2803 10.6103C11.3649 9.82015 11.2072 9.00062 10.8241 8.23912C10.5111 7.61832 10.0419 7.03964 9.46617 6.5643V6.5651ZM9.14477 10.3058C9.08155 10.8622 8.65124 11.3074 7.93457 11.5609C7.78148 11.615 7.62078 11.642 7.4578 11.642H4.80206V10.5419L4.81653 10.53L7.74797 8.04597L7.77158 8.06345C8.23236 8.40685 8.60021 8.78839 8.83479 9.16834C9.07774 9.56102 9.18513 9.95449 9.14477 10.3058Z" fill="white"/>
<path d="M7.74862 8.0959L4.84003 10.5608V11.6021H7.45769C7.61686 11.6021 7.77375 11.5751 7.92227 11.5227C8.62447 11.2746 9.04488 10.8406 9.10657 10.3001C9.14618 9.95752 9.04031 9.57359 8.80193 9.18887C8.56735 8.80971 8.20635 8.43611 7.74862 8.09511V8.0959ZM9.06926 10.2961C9.00909 10.82 8.59782 11.2429 7.91084 11.4853C7.76538 11.5362 7.61305 11.5624 7.45845 11.5624H4.87887V10.5791L7.75091 8.14519C8.19264 8.47745 8.54527 8.84548 8.77147 9.21033C9.00528 9.58711 9.1081 9.96229 9.07002 10.2954L9.06926 10.2961Z" fill="black"/>
<path d="M7.77073 8.06331L7.74712 8.04582L4.81568 10.5298L4.80121 10.5418V11.6419H7.45695C7.61993 11.6419 7.78063 11.6149 7.93372 11.5608C8.65039 11.3072 9.07994 10.8621 9.14392 10.3057C9.18428 9.95434 9.07689 9.56087 8.83394 9.1682C8.59936 8.78824 8.23151 8.4067 7.77073 8.06331ZM9.1066 10.3009C9.04491 10.8406 8.6245 11.2754 7.92229 11.5234C7.77378 11.5759 7.61689 11.6029 7.45771 11.6029H4.84005V10.5616L7.74864 8.09669C8.20713 8.4377 8.56814 8.8113 8.80195 9.19046C9.04034 9.57518 9.14544 9.95991 9.1066 10.3017V10.3009Z" fill="black"/>
<path d="M18.265 19.7815C18.265 20.6193 17.7219 21.0764 17.0114 21.0764C16.3008 21.0764 15.7578 20.6344 15.7578 19.7815C15.7578 18.9286 16.3008 18.4866 17.0114 18.4866C17.7219 18.4866 18.265 18.9437 18.265 19.7815ZM17.7448 19.7815C17.7448 19.2839 17.4348 19.0518 17.0114 19.0518C16.5879 19.0518 16.2779 19.2752 16.2779 19.7815C16.2779 20.2878 16.5879 20.5112 17.0114 20.5112C17.4348 20.5112 17.7448 20.2712 17.7448 19.7815Z" fill="white"/>
<path d="M22.1241 19.4461C22.1241 20.3968 21.3129 20.3626 21.0814 20.3626H20.5193V21.0756H19.9885V18.528H20.5193V18.5304C20.6488 18.5304 20.9382 18.528 21.0829 18.528C21.3762 18.528 22.1241 18.5304 22.1241 19.4461ZM21.6267 19.4453C21.6267 19.0057 21.2855 19.0065 21.1088 19.0065H20.5193V19.8841H21.1012C21.2421 19.8841 21.6275 19.9055 21.6275 19.4445L21.6267 19.4453Z" fill="white"/>
<path d="M25.8522 18.528V19.0288H24.3769V19.5518H25.8522V20.0526H24.3769V20.5692H25.8522V21.0764H24.3769H23.8461V18.5288H25.8522V18.528Z" fill="white"/>
<path d="M29.5185 18.528H30.0494V21.0756H29.2847L28.2147 19.2473H28.1537V21.0756H27.6229V18.528H28.3403V18.5304H28.3876L29.4561 20.3562H29.5185V18.528Z" fill="white"/>
<path d="M34.5101 18.528H36.8864V19.0335H35.964V21.0756H35.4332V19.0335H34.5109V18.528H34.5101Z" fill="white"/>
<path d="M40.4492 18.528H40.98V21.0756H40.4492V20.0518H39.1735V21.0756H38.6426V18.528H39.1735V19.5518H40.4492V18.528Z" fill="white"/>
<path d="M44.747 18.528V19.0288H43.2717V19.5518H44.747V20.0526H43.2717V20.5692H44.747V21.0764H43.2717H42.7409V18.5288H44.747V18.528Z" fill="white"/>
<path d="M51.4674 19.8038C51.4674 20.2942 51.2831 21.0764 50.2641 21.0764H49.2131V18.5288H50.2641C51.2984 18.5288 51.4674 19.3141 51.4674 19.8038ZM50.9176 19.8038C50.9176 19.5168 50.8125 19.0335 50.2641 19.0335H49.7439V20.5708H50.2633C50.8079 20.5708 50.9176 20.0772 50.9176 19.803V19.8038Z" fill="white"/>
<path d="M55.6814 19.7815C55.6814 20.6193 55.1384 21.0764 54.4278 21.0764C53.7172 21.0764 53.1742 20.6344 53.1742 19.7815C53.1742 18.9286 53.7172 18.4866 54.4278 18.4866C55.1384 18.4866 55.6814 18.9437 55.6814 19.7815ZM55.1612 19.7815C55.1612 19.2839 54.8513 19.0518 54.4278 19.0518C54.0044 19.0518 53.6944 19.2752 53.6944 19.7815C53.6944 20.2878 54.0044 20.5112 54.4278 20.5112C54.8513 20.5112 55.1612 20.2712 55.1612 19.7815Z" fill="white"/>
<path d="M59.9152 19.7815C59.9152 20.6193 59.3722 21.0764 58.6616 21.0764C57.951 21.0764 57.408 20.6344 57.408 19.7815C57.408 18.9286 57.951 18.4866 58.6616 18.4866C59.3722 18.4866 59.9152 18.9437 59.9152 19.7815ZM59.3951 19.7815C59.3951 19.2839 59.0851 19.0518 58.6616 19.0518C58.2382 19.0518 57.9282 19.2752 57.9282 19.7815C57.9282 20.2878 58.2382 20.5112 58.6616 20.5112C59.0851 20.5112 59.3951 20.2712 59.3951 19.7815Z" fill="white"/>
<path d="M63.3821 20.0971L63.8482 21.0756H63.2724L62.8771 20.2243C62.8246 20.2266 62.7789 20.2274 62.7461 20.2274H62.184V21.0756H61.6532V18.528H62.184V18.5304C62.3135 18.5304 62.6997 18.528 62.8444 18.528C63.1376 18.528 63.7895 18.5272 63.7895 19.3785C63.7895 19.8189 63.6022 19.9778 63.3828 20.0971H63.3821ZM63.2968 19.3777C63.2968 19.024 62.9769 19.024 62.8116 19.024H62.184V19.7322H62.8032C62.9548 19.7322 63.2968 19.7346 63.2968 19.3777Z" fill="white"/>
<path d="M70.3966 18.528V19.0288H68.849V19.5518H70.3242V20.0526H68.849V21.0764H68.3181V18.5288H70.3966V18.528Z" fill="white"/>
<path d="M74.5458 19.7815C74.5458 20.6193 74.0028 21.0764 73.2922 21.0764C72.5816 21.0764 72.0386 20.6344 72.0386 19.7815C72.0386 18.9286 72.5816 18.4866 73.2922 18.4866C74.0028 18.4866 74.5458 18.9437 74.5458 19.7815ZM74.0256 19.7815C74.0256 19.2839 73.7156 19.0518 73.2922 19.0518C72.8687 19.0518 72.5588 19.2752 72.5588 19.7815C72.5588 20.2878 72.8687 20.5112 73.2922 20.5112C73.7156 20.5112 74.0256 20.2712 74.0256 19.7815Z" fill="white"/>
<path d="M78.0119 20.0971L78.478 21.0756H77.9022L77.5069 20.2243C77.4544 20.2266 77.4087 20.2274 77.3759 20.2274H76.8139V21.0756H76.283V18.528H76.8139V18.5304C76.9433 18.5304 77.3295 18.528 77.4742 18.528C77.7674 18.528 78.4193 18.5272 78.4193 19.3785C78.4193 19.8189 78.232 19.9778 78.0126 20.0971H78.0119ZM77.9266 19.3777C77.9266 19.024 77.6067 19.024 77.4414 19.024H76.8139V19.7322H77.4331C77.5846 19.7322 77.9266 19.7346 77.9266 19.3777Z" fill="white"/>
<path d="M85.1291 20.3514C85.1291 20.8419 84.8161 21.0764 84.4437 21.0764H82.9479V18.5288H84.1901C84.6981 18.5288 85.0263 18.7418 85.0263 19.2537C85.0263 19.5319 84.9418 19.6853 84.7887 19.7704C85.0065 19.8507 85.1299 20.0168 85.1299 20.3522L85.1291 20.3514ZM83.4787 19.0335V19.5677H84.0614C84.3066 19.5677 84.5061 19.5581 84.5061 19.3006C84.5061 19.0431 84.2975 19.0335 84.0385 19.0335H83.4787ZM84.609 20.2918C84.609 20.0518 84.4635 20.0128 84.2182 20.0128H83.4787V20.5716H84.1512C84.4102 20.5716 84.6097 20.5541 84.6097 20.2926L84.609 20.2918Z" fill="white"/>
<path d="M88.8945 18.528V19.0288H87.4193V19.5518H88.8945V20.0526H87.4193V20.5692H88.8945V21.0764H87.4193H86.8884V18.5288H88.8945V18.528Z" fill="white"/>
<path d="M90.6584 18.528H93.0347V19.0335H92.1124V21.0756H91.5815V19.0335H90.6592V18.528H90.6584Z" fill="white"/>
<path d="M94.791 18.528H97.1672V19.0335H96.2449V21.0756H95.714V19.0335H94.7917V18.528H94.791Z" fill="white"/>
<path d="M100.92 18.528V19.0288H99.4444V19.5518H100.92V20.0526H99.4444V20.5692H100.92V21.0764H99.4444H98.9136V18.5288H100.92V18.528Z" fill="white"/>
<path d="M104.415 20.0971L104.882 21.0756H104.306L103.91 20.2243C103.858 20.2266 103.812 20.2274 103.779 20.2274H103.217V21.0756H102.687V18.528H103.217V18.5304C103.347 18.5304 103.733 18.528 103.878 18.528C104.171 18.528 104.823 18.5272 104.823 19.3785C104.823 19.8189 104.636 19.9778 104.416 20.0971H104.415ZM104.33 19.3777C104.33 19.024 104.01 19.024 103.845 19.024H103.217V19.7322H103.837C103.988 19.7322 104.33 19.7346 104.33 19.3777Z" fill="white"/>
<path d="M111.605 19.8038C111.605 20.2942 111.421 21.0764 110.402 21.0764H109.351V18.5288H110.402C111.436 18.5288 111.605 19.3141 111.605 19.8038ZM111.055 19.8038C111.055 19.5168 110.95 19.0335 110.402 19.0335H109.881V20.5708H110.401C110.945 20.5708 111.055 20.0772 111.055 19.803V19.8038Z" fill="white"/>
<path d="M115.34 18.528V19.0288H113.865V19.5518H115.34V20.0526H113.865V20.5692H115.34V21.0764H113.865H113.334V18.5288H115.34V18.528Z" fill="white"/>
<path d="M119.669 21.0756H119.119L118.975 20.6559H117.728L117.584 21.0756H117.034L117.907 18.5304H118.796L119.67 21.0756H119.669ZM118.802 20.1503L118.418 19.0327H118.285L117.902 20.1503H118.802H118.802Z" fill="white"/>
<path d="M121.893 20.5756H123.368V21.0764H121.362V18.5288H121.893V20.5756Z" fill="white"/>
<path d="M127.452 20.2847C127.452 20.9174 127.048 21.0764 126.335 21.0764C125.131 21.0764 125.132 20.3808 125.132 20.1344H125.677C125.677 20.5192 126.001 20.5796 126.318 20.5796C126.719 20.5796 126.886 20.4826 126.886 20.2855C126.886 20.1122 126.719 20.082 126.241 20.008C125.511 19.896 125.183 19.7378 125.183 19.272C125.183 18.9119 125.438 18.497 126.235 18.497C127.183 18.497 127.372 19.0502 127.372 19.4389H126.815C126.815 19.2624 126.74 18.9993 126.236 18.9993C125.824 18.9993 125.731 19.1543 125.731 19.2775C125.731 19.4127 125.875 19.4636 126.284 19.5327C126.83 19.6257 127.453 19.7092 127.453 20.2855L127.452 20.2847Z" fill="white"/>
<path d="M13.2414 19.5828H0V19.9802H13.2414V19.5828Z" fill="#1D85DB"/>
<path d="M143.314 19.5828H130.073V19.9802H143.314V19.5828Z" fill="#1D85DB"/>
</svg>
